<?xml version="1.0" encoding="UTF-8" standalone="no"?>
<!-- Created with Inkscape (http://www.inkscape.org/) -->

<svg
   version="1.1"
   id="svg1"
   width="184"
   height="184"
   viewBox="0 0 184 184"
   sodipodi:docname="floreal pattern.svg"
   inkscape:version="1.4 (86a8ad7, 2024-10-11)"
   xmlns:inkscape="http://www.inkscape.org/namespaces/inkscape"
   xmlns:sodipodi="http://sodipodi.sourceforge.net/DTD/sodipodi-0.dtd"
   xmlns="http://www.w3.org/2000/svg"
   xmlns:svg="http://www.w3.org/2000/svg">
  <defs
     id="defs1" />
  <sodipodi:namedview
     id="namedview1"
     pagecolor="#505050"
     bordercolor="#ffffff"
     borderopacity="1"
     inkscape:showpageshadow="0"
     inkscape:pageopacity="0"
     inkscape:pagecheckerboard="1"
     inkscape:deskcolor="#505050"
     inkscape:zoom="4"
     inkscape:cx="81.25"
     inkscape:cy="92.625"
     inkscape:window-width="2560"
     inkscape:window-height="1351"
     inkscape:window-x="-9"
     inkscape:window-y="-9"
     inkscape:window-maximized="1"
     inkscape:current-layer="g1" />
  <g
     inkscape:groupmode="layer"
     inkscape:label="Image"
     id="g1"
     style="display:inline">
    <path
       id="rect71"
       style="display:inline;fill:#c8c8c8;fill-opacity:1;stroke:none;stroke-width:0.188976;stroke-linecap:round"
       d="M 0 0 L 0 12.134766 C 4.2288227 13.482155 7.7145123 14.836908 19.824219 17.033203 C 22.185644 17.461486 25.064621 16.40409 26.179688 16.3125 C 27.294753 16.22091 30.940222 13.625518 34.28125 10.544922 L 40.355469 4.9453125 L 39.416016 10.212891 C 38.261561 16.687137 35.099838 22.073093 28.976562 27.992188 C 25.260089 31.584736 22.926913 32.641315 17.589844 33.154297 C 9.9062155 33.892823 7.9893176 31.851238 10.726562 25.841797 C 12.578219 21.776609 10.578008 19.59909 6.1738281 20.888672 C 4.7088931 21.31762 0.9155842 21.173147 0 21.242188 L 0 25.052734 L 0 27.037109 C 0.94312114 27.467059 3.0413857 27.99333 3.5175781 29.494141 C 3.9937706 30.994951 5.647533 33.401198 7.1933594 34.841797 C 10.562486 37.981578 5.3436799 36.955579 0 34.191406 L 0 38.222656 C 1.6959514 39.113894 1.4119104 38.815084 6.2382812 39.539062 C 12.240884 40.439487 12.270447 40.468625 9.2363281 42.564453 C 7.5518368 43.728021 5.3750262 45.459524 4.4003906 46.412109 C 3.4257548 47.364694 2.2844862 47.49421 1.6601562 47.544922 C 1.0023657 47.598351 -0.00134837 49.62163 0 49.820312 L 0.056640625 58.109375 L 4.1777344 53.447266 C 6.4449402 50.882844 7.7277511 49.991262 7.0273438 51.464844 C 6.3269361 52.938426 1.5327793 58.825319 0 60.212891 L 0 72.458984 C 3.8824313 73.94927 10.758083 71.212772 8.7851562 68.019531 C 8.3861047 67.373654 9.036236 65.355361 10.228516 63.535156 C 11.420795 61.71495 12.058581 59.680664 11.646484 59.013672 C 11.234387 58.346681 11.930768 56.862257 13.195312 55.714844 C 15.351757 53.758147 15.468309 54.099677 15.058594 61.244141 C 14.66676 68.076766 14.999424 69.240597 18.289062 72.53125 C 22.317059 76.560484 25.079486 76.709737 27.337891 73.019531 C 28.502957 71.115828 28.323911 70.245145 26.482422 68.875 C 25.200604 67.921274 24.152344 66.158468 24.152344 64.957031 C 24.152344 63.755593 23.252998 62.773436 22.154297 62.773438 C 21.055596 62.773438 20.105962 62.023287 20.044922 61.107422 C 19.983882 60.191556 19.784347 58.093871 19.601562 56.445312 C 19.147161 52.347043 20.463927 52.686118 23.236328 57.380859 C 26.684306 63.219612 32.455239 66.727814 41.714844 68.617188 C 49.004077 70.104512 50.101078 70.740474 50.966797 73.978516 C 52.16341 78.454189 51.279036 81.066644 47.966797 82.839844 C 43.429742 85.268748 37.169894 79.415006 41.464844 76.759766 C 42.197312 76.306937 42.796875 76.915324 42.796875 78.111328 C 42.796875 79.465253 43.675882 80.117427 45.126953 79.837891 C 48.089667 79.267149 48.15672 74.826867 45.230469 72.980469 C 43.646257 71.980867 42.012137 72.027715 39.570312 73.140625 C 36.835718 74.386974 36.136719 75.650423 36.136719 79.353516 C 36.136719 83.054798 36.882824 84.407791 39.798828 85.990234 C 45.018164 88.822641 47.784174 88.545096 51.513672 84.814453 C 55.285179 81.041789 55.771542 75.435138 52.707031 71.058594 C 50.759513 68.277269 50.820334 68.020493 53.705078 66.90625 C 59.969139 64.486737 65.435547 55.940562 65.435547 48.566406 C 65.435547 39.773421 57.104714 30.817181 48.916016 30.806641 C 45.25247 30.801941 45.164811 30.672208 47.251953 28.365234 C 48.464178 27.025329 49.455078 24.634792 49.455078 23.054688 C 49.455078 20.477629 49.900718 20.66105 53.783203 24.835938 C 58.700408 30.123472 67.648826 32.555021 75.597656 30.761719 C 82.604384 29.18096 85.618436 25.850326 85.144531 20.210938 C 84.760935 15.646202 84.560097 15.480469 79.419922 15.480469 C 75.000289 15.480469 73.682016 14.828341 71.681641 11.652344 C 69.526725 8.2309821 68.712567 7.9001594 64.023438 8.5292969 C 61.137841 8.9164554 58.777344 8.7017469 58.777344 8.0527344 C 58.777344 7.4037217 57.278435 6.4968445 55.447266 6.0371094 C 53.363816 5.5140362 50.771484 1.5768988 50.771484 0 L 45.935547 0 C 46.427946 4.8325607 47.010493 14.836346 48 14.224609 C 48.486329 13.923949 48.884766 14.785329 48.884766 16.138672 C 48.884766 18.098573 48.39464 18.336341 46.478516 17.310547 C 45.1554 16.60222 43.50682 16.374698 42.814453 16.802734 C 42.042254 17.280127 42.355411 14.236954 42.369141 8.8710938 L 42.390625 0 L 32.832031 0 C 32.832031 0 32.307265 0.99257817 29.494141 4.3632812 C 26.679798 7.7354445 24.620416 8.7416464 19.076172 9.453125 C 11.213292 10.462149 9.5343742 8.9185726 17.160156 7.6914062 C 22.391212 6.8496073 29.376953 2.1449682 29.376953 0 L 0 0 z M 70.166016 0 C 70.166016 1.817316 70.552703 7.3284324 72.007812 8.1074219 C 75.345754 9.8943819 75.512723 9.872819 78.039062 7.3457031 C 79.796295 5.5879337 80.825875 5.4799907 83.794922 6.7421875 C 88.605384 8.7872038 91.607813 11.451226 98.521484 19.810547 L 104.30469 26.804688 L 98.351562 26.804688 C 95.076707 26.804686 90.376221 27.651122 87.90625 28.685547 C 77.914905 32.869926 69.431641 45.767762 69.431641 56.775391 C 69.431641 66.121365 84.629159 77.415505 91.939453 73.501953 C 95.803391 71.433401 97.675364 66.33846 96.097656 62.1875 C 94.804181 58.784358 90.361273 55.603128 88.917969 57.046875 C 88.455429 57.509557 88.076172 56.109201 88.076172 53.935547 C 88.076172 49.447023 85.994102 46.787109 82.482422 46.787109 C 78.586159 46.787109 79.711655 43.708498 85.746094 37.855469 C 92.210979 31.584935 100.90783 28.28752 104.88672 30.599609 C 106.9522 31.79983 107.01423 32.058317 105.23633 32.091797 C 101.42501 32.163577 96.173756 37.459605 94.554688 42.865234 C 93.305837 47.034796 93.34556 49.239354 94.748047 53.490234 C 96.745577 59.544669 106.01626 68.871918 111.37305 70.216797 C 114.43131 70.98461 114.80409 71.674703 114.44922 75.923828 C 114.12472 79.809396 113.44431 80.841469 110.97656 81.191406 C 109.28819 81.430823 107.04081 80.907949 105.98242 80.029297 C 103.44594 77.923558 103.52061 73.551101 106.11133 72.556641 C 108.90572 71.484004 110.45179 73.279246 108.02539 74.779297 C 106.55298 75.689583 106.45303 76.35893 107.61523 77.521484 C 109.60634 79.513209 112.04688 77.975744 112.04688 74.730469 C 112.04685 71.190952 107.48797 68.928667 104.05664 70.765625 C 100.49891 72.670244 100.61462 78.423484 104.28906 82.335938 C 109.9858 88.401692 117.375 84.761734 117.375 75.888672 C 117.375 71.217512 117.69039 70.765625 120.95508 70.765625 C 125.35474 70.765625 132.71957 65.896191 134.61523 61.734375 C 136.65021 57.266742 136.33896 50.500195 133.94141 47.076172 C 131.37481 43.41072 125.23447 40.125 120.94922 40.125 C 111.38988 40.125 106.71182 53.171167 114.59961 57.832031 C 120.82595 61.511148 128.45675 57.294612 126.20312 51.419922 C 125.55867 49.739956 124.96909 49.676227 122.76562 51.052734 C 119.16406 53.302649 116.02347 50.5687 118.20703 47.083984 C 121.99747 41.03485 132.06422 46.09888 131.98242 54.013672 C 131.86029 65.827748 116.09633 68.782132 105.58594 58.960938 C 94.937397 49.010672 100.21107 37.112806 115.19141 37.289062 C 118.95628 37.333362 123.08537 37.050466 124.36719 36.660156 C 128.08034 35.529512 127.06557 33.464844 122.79688 33.464844 C 115.97489 33.464844 112.12022 26.61757 116.76953 22.757812 C 117.90156 21.818019 118.49036 20.170222 118.07812 19.095703 C 117.66594 18.021185 118.00502 16.324965 118.83203 15.328125 C 119.65904 14.331284 120.01078 12.668985 119.61328 11.632812 C 119.17487 10.490001 119.94129 9.4743566 121.56055 9.0507812 C 123.58474 8.5212795 125.11825 7.1405931 123.79883 4.5898438 C 122.24339 1.5828274 121.86169 0.42455913 121.42773 0 L 110.72461 0 C 109.83025 0.41396368 109.34618 1.4426386 107.93359 3.7539062 C 106.75879 5.6761146 106.86119 10.397315 107.33008 14.148438 L 108.16211 20.808594 L 105.77734 16.505859 C 104.46516 14.138938 100.80799 9.8141201 98.433594 6.3046875 L 94.167969 0 L 70.166016 0 z M 96.931641 0 L 100.04492 2.0898438 C 103.45536 3.9781353 105.75696 4.0569204 104.84375 1.6445312 C 104.57076 0.92340433 104.38121 0.6302867 104.13672 0 L 96.931641 0 z M 138.4043 0 C 128.61831 5.5670667 121.99153 27.518882 127.74609 31.550781 C 129.36688 32.686366 130.69141 34.481572 130.69141 35.539062 C 130.69141 36.596556 131.95631 38.727317 133.50195 40.273438 C 135.77543 42.54762 137.30332 42.926205 141.49414 42.255859 C 144.3433 41.80012 146.67383 41.940928 146.67383 42.570312 C 146.67383 43.199697 148.02187 44.365087 149.66992 45.160156 C 154.07603 47.285798 156.59166 47.080132 160.14453 44.304688 C 161.89136 42.940094 164.68399 41.397705 166.35156 40.875 C 174.53612 38.309507 174.50258 26.804688 166.31055 26.804688 C 163.5348 26.804688 162.20586 27.569029 161.71484 29.447266 C 161.02667 32.079623 161.00978 32.079434 157.63477 29.423828 C 155.6492 27.861498 153.22899 27.080574 151.79102 27.537109 C 149.96004 28.118416 149.33789 27.634189 149.33789 25.628906 C 149.33789 24.150555 148.49579 22.460927 147.4668 21.875 C 143.44691 19.585979 144.38089 11.573736 149.23438 6.71875 C 154.64592 1.3055433 156.57813 1.8496592 152.62695 7.6738281 C 150.81786 10.340496 149.33789 13.855652 149.33789 15.486328 C 149.33789 20.128898 154.28029 25.472656 158.57617 25.472656 C 163.29251 25.472656 169.3125 20.807997 169.3125 17.154297 C 169.3125 11.181366 161.52794 7.1485858 157.59375 11.083984 C 155.30604 13.372397 155.62126 18.383274 158.11328 19.339844 C 161.32123 20.571229 163.46697 18.702537 160.95508 16.865234 C 157.85911 14.600713 160.35832 10.930772 163.61523 12.958984 C 166.8263 14.958646 167.22999 18.040696 164.62305 20.648438 C 161.4166 23.85587 156.40388 23.338102 153.91797 19.542969 C 151.06654 15.189791 152.30691 12.220788 159.3457 5.6132812 L 165.32422 0 L 138.4043 0 z M 177.10938 0 C 175.6591 1.0933266 173.97461 2.9932704 173.97461 4.8242188 C 173.97461 8.2006786 174.69677 9.066824 178.63477 10.410156 C 181.1984 11.284667 183.81688 12.093416 184 12.134766 L 184 6.0683594 L 184 0 L 177.10938 0 z M 114.93164 4.0371094 C 115.01314 4.0549404 115.08607 4.0951635 115.15039 4.1601562 C 115.51179 4.5253505 115.49862 6.4308045 115.12109 8.3964844 C 114.32708 12.530581 110.7168 14.690679 110.7168 11.03125 C 110.7168 8.5612824 113.70948 3.7696461 114.93164 4.0371094 z M 139.42383 5.5351562 C 139.69648 5.5461183 139.52398 6.607819 138.65039 8.90625 C 135.38026 17.509993 138.77219 28.607923 146.7168 35.294922 C 152.00888 39.749288 150.14707 39.829791 143.66797 35.425781 C 135.01352 29.543121 132.48272 20.418476 136.70312 10.314453 C 137.84312 7.5852663 138.82994 5.9201813 139.28125 5.59375 C 139.33765 5.552946 139.38488 5.5335901 139.42383 5.5351562 z M 51.085938 11.041016 C 51.222082 10.908806 51.677588 11.427177 52.546875 12.505859 C 53.661876 13.889443 55.332858 14.519451 56.599609 14.033203 C 57.921581 13.525759 59.071591 14.031603 59.574219 15.341797 C 60.024993 16.516856 61.842349 17.478516 63.613281 17.478516 C 65.836023 17.478516 67.231246 18.527223 68.119141 20.863281 C 69.199093 23.704642 69.822854 24.023998 72.001953 22.857422 C 74.777503 21.371536 76.937408 23.022881 75.423828 25.472656 C 74.551606 26.884376 64.794449 27.125689 61.464844 25.818359 C 57.996974 24.456742 52.72602 17.905043 51.541016 13.482422 C 51.132183 11.956594 50.949791 11.173225 51.085938 11.041016 z M 173.34766 13.521484 C 172.98214 13.499324 172.60941 13.934912 172.02148 14.814453 C 169.59607 18.442854 170.45859 25.011936 173.7793 28.208984 C 176.4624 30.792167 176.71348 31.753786 175.52539 34.902344 C 174.48512 37.659182 174.5734 39.107314 175.88281 40.685547 C 178.07954 43.333265 181.52078 42.017104 184 38.222656 L 184 34.191406 C 182.8249 33.590333 180.41211 33.342226 180.41211 30.617188 C 180.41211 27.892145 182.76776 26.564108 184 27.037109 L 184 21.242188 C 182.57813 21.261408 180.59908 19.415628 179.93555 18.798828 C 178.17968 17.166606 175.33451 16.158785 174.63281 14.972656 C 174.07125 14.023418 173.71317 13.543647 173.34766 13.521484 z M 42.375 18.677734 C 42.555161 18.650534 42.753984 18.664101 42.964844 18.712891 C 44.370575 19.038107 46.293013 20.952235 46.546875 23.152344 C 46.905222 26.257972 46.478655 26.804688 43.693359 26.804688 C 41.885012 26.804688 40.041258 25.824461 39.578125 24.617188 C 38.931749 22.932243 39.139827 22.762024 40.480469 23.875 C 42.583331 25.620755 46.199744 23.750815 44.873047 21.603516 C 44.36236 20.776952 43.386933 20.445647 42.705078 20.867188 C 42.023222 21.288726 41.464844 20.954658 41.464844 20.125 C 41.464844 19.203006 41.834516 18.759327 42.375 18.677734 z M 35.720703 27.818359 C 36.501135 27.898539 37.563674 28.379616 39.263672 29.150391 L 43.802734 31.208984 L 40.613281 34.001953 C 38.858647 35.53841 36.882036 38.723588 36.220703 41.080078 C 34.523643 47.12712 38.652773 52.435715 44.603516 51.855469 C 47.168238 51.605387 48.923686 50.61804 49.175781 49.285156 C 49.680116 46.618615 45.731155 44.902455 43.449219 46.796875 C 40.460074 49.278406 40.074924 44.554502 42.966797 40.876953 C 45.117541 38.141885 46.813392 37.460938 51.474609 37.460938 C 58.309521 37.460938 61.441406 40.714306 61.441406 47.814453 C 61.441406 51.543772 58.321182 60.107422 56.962891 60.107422 C 56.735371 60.107422 56.600853 57.579602 56.664062 54.488281 C 56.752192 50.178694 56.244211 48.75891 54.484375 48.402344 C 52.869694 48.075189 51.493068 49.544733 49.841797 53.357422 C 48.550839 56.338165 47.036242 58.775391 46.476562 58.775391 C 45.916885 58.775391 45.458984 60.275692 45.458984 62.107422 C 45.458984 66.862999 41.376045 66.429799 35.699219 61.074219 C 28.042947 53.851209 26.815155 42.263879 32.542969 31.277344 C 33.905082 28.664671 34.419984 27.684721 35.720703 27.818359 z M 14.576172 44.123047 C 14.942406 44.123047 14.157779 45.321724 12.832031 46.787109 C 11.506283 48.252493 10.122093 49.451172 9.7558594 49.451172 C 9.3896257 49.451172 10.174252 48.252493 11.5 46.787109 C 12.825748 45.321724 14.209938 44.123047 14.576172 44.123047 z M 166.05469 44.123047 C 162.8303 44.123047 162.52533 44.53972 162.90234 48.451172 C 163.31232 52.704562 163.43476 52.779727 169.83984 52.685547 L 176.35938 52.589844 L 172.50391 55.798828 C 167.94744 59.591145 156.25419 65.405308 153.14648 65.423828 C 151.94581 65.431028 149.60767 64.339813 147.95117 62.998047 C 145.6685 61.14909 145.14679 59.733502 145.79492 57.150391 C 146.90311 52.733624 150.23767 51.525731 154.18555 54.113281 C 158.15899 56.717578 158.23166 58.840719 154.33203 58.427734 C 152.41535 58.224751 151.33398 58.829247 151.33398 60.107422 C 151.33398 61.439589 152.66656 62.107422 155.33008 62.107422 C 158.83318 62.107422 159.37463 61.592762 159.73047 57.931641 C 160.04395 54.706256 159.32154 53.114571 156.55469 50.9375 C 149.09531 45.068149 140.74023 49.208803 140.74023 58.775391 C 140.74023 63.261991 141.48433 65.026775 144.44727 67.576172 C 146.48575 69.330139 149.61788 70.765625 151.4082 70.765625 C 153.65494 70.765625 154.66406 71.509002 154.66406 73.164062 C 154.66406 74.482911 155.38276 76.280926 156.26172 77.160156 C 158.10839 79.007391 162.52159 79.223621 165.0918 77.59375 C 166.0979 76.955744 166.67351 74.807003 166.42383 72.619141 C 166.0701 69.519483 165.35977 68.792275 162.78906 68.894531 C 159.74939 69.01544 159.71695 68.93417 162.12305 67.210938 C 167.58216 63.301124 183.78855 48.720142 183.87305 47.642578 C 183.92235 47.014669 182.94012 46.893728 181.69141 47.373047 C 180.44271 47.852366 176.88324 48.592273 173.78125 49.017578 C 168.52299 49.738524 168.19196 49.599613 168.88281 46.957031 C 169.50248 44.586626 169.03951 44.123047 166.05469 44.123047 z M 184 49.820312 L 178.80273 54.917969 C 164.93712 68.516386 164.41798 89.768839 177.18945 103.73633 C 179.36679 106.11758 183.69959 108.23721 184 108.28711 L 184 96.572266 C 181.56384 95.572958 173.81414 85.250802 172.76367 79.626953 C 172.18643 76.536662 172.3005 74.805698 173.05078 75.269531 C 173.73535 75.692753 174.68219 77.970758 175.1543 80.332031 C 175.98496 84.486567 181.75611 92.048828 184 92.048828 L 184 84.300781 C 183.9935 83.99248 183.96289 83.725935 183.96289 83.421875 C 183.96289 82.660075 183.98926 82.478526 184 81.863281 L 184 76.349609 C 182.10968 75.857422 177.51687 67.954574 181.37695 61.621094 C 182.84341 59.214967 182.99693 59.110406 184 58.167969 L 184 49.820312 z M 73.607422 51.449219 L 75.144531 54.779297 C 76.863258 58.501753 78.807369 60.233844 80.259766 59.335938 C 80.791353 59.007297 81.622281 59.988565 82.107422 61.517578 C 82.612027 63.107936 83.751278 64.006094 84.769531 63.615234 C 87.10809 62.717569 89.918577 66.182385 88.933594 68.75 C 87.973655 71.25232 85.805391 71.232735 81.101562 68.679688 C 76.753281 66.319609 73.392904 60.338493 73.517578 55.179688 L 73.607422 51.449219 z M 184 60.212891 C 183.85397 60.318228 182.86429 61.080094 182.63086 61.441406 C 181.14964 63.734149 182.20158 71.972519 184 72.458984 L 184 65.878906 L 184 60.212891 z M 66.326172 65.4375 C 58.512001 65.4375 54.653961 73.465998 59.757812 79.107422 C 61.840716 81.40971 61.863648 81.817718 59.990234 83.208984 C 58.846082 84.058673 56.076976 87.29684 53.835938 90.404297 C 50.288007 95.323911 49.542332 95.788343 48.058594 94 C 45.878285 91.372082 37.56594 91.959751 35.744141 94.871094 C 32.292196 100.38751 39.978224 109.40023 44.753906 105.43555 C 47.326891 103.2995 47.372711 99.550048 44.851562 97.457031 C 42.592107 95.581275 40.132812 96.686321 40.132812 99.576172 C 40.132812 101.01675 40.930641 101.33156 42.953125 100.68945 C 44.993045 100.04179 45.608761 100.29441 45.173828 101.59961 C 44.344697 104.08777 40.049047 103.86838 38.400391 101.25391 C 36.233816 97.818107 38.25279 94.744141 42.675781 94.744141 C 47.665156 94.744141 48.554024 96.230443 48.755859 104.89648 L 48.919922 111.875 L 44.363281 109.9707 C 37.812195 107.23264 28.316989 107.56689 23.152344 110.7168 C 20.771825 112.16868 18.824219 113.93632 18.824219 114.64648 C 18.824219 115.35663 17.30001 117.46504 15.435547 119.33008 C 11.486844 123.27999 7.0449815 123.85892 7.3203125 120.38867 C 7.4510614 118.74073 6.2673357 116.97958 4.1757812 118.05859 C 1.8082085 119.27999 2.90625 118.63878 0 120.29492 L 0 125.73438 C 2.0457764 126.67132 8.0593841 127.55448 10.177734 126.16602 C 14.502148 123.33169 14.364824 124.03875 9.5234375 129.5332 C 7.3377348 132.01373 5.5390438 134.99932 5.5273438 136.16797 C 5.5156436 137.33662 1.3354277 146.41999 0 147.62891 L 0 157.74805 C 3.4432296 159.06975 8.4559898 155.53412 10.326172 146.4375 L 12.052734 138.04102 L 11.775391 150.26758 C 11.47603 163.53163 5.7550091 174.76005 0 175.61914 L 0 179.52734 C 0 179.52734 1.505606 179.62544 6.7851562 175.18164 C 11.657 171.081 14.247788 166.47765 15.529297 159.64453 L 16.457031 154.69727 L 20.304688 159.54102 C 24.808546 165.21013 25.211999 169.797 21.488281 172.98633 C 19.996513 174.26401 18.824219 176.9149 18.824219 179.01367 C 18.824219 182.30572 18.511058 182.5943 16.248047 181.38281 C 12.73541 179.50233 8.5444467 177.97365 7.2714844 181.58398 C 7.0032759 182.34466 7.082231 184 9.0546875 184 L 29.376953 184 L 30.810547 178.67188 C 31.599479 175.74111 32.600711 173.3418 33.035156 173.3418 C 33.469596 173.3418 33.225008 181.06923 32.832031 184 L 42.390625 184 C 42.390625 177.06073 38.970157 168.57963 26.117188 156.18359 L 14.541016 145.01953 L 15.064453 136.79297 C 15.612869 128.17763 20.496951 118.15243 25.740234 114.87695 C 27.403321 113.83801 26.895184 115.14549 24.181641 118.89258 C 18.495122 126.745 18.538444 135.87819 24.308594 146.10547 C 28.647402 153.79578 35.398847 160.02148 39.400391 160.02148 C 40.690452 160.02148 43.526906 161.51983 45.703125 163.35156 C 47.879346 165.18329 50.512183 166.68164 51.554688 166.68164 C 54.013647 166.68164 58.777344 161.90523 58.777344 159.43945 C 58.777344 158.25398 60.424495 157.36599 63.105469 157.10742 C 66.6823 156.76244 67.504604 156.07063 67.845703 153.11719 C 68.629376 146.33172 61.184434 145.43283 55.046875 151.57227 C 54.063857 152.55559 50.75598 153.32058 47.695312 153.27148 L 42.130859 153.18164 L 47.898438 151.38086 C 55.712336 148.94173 58.777344 145.89762 58.777344 140.57617 C 58.777344 135.29723 56.944063 133.8916 52.658203 135.88477 C 48.561567 137.78992 44.092977 139.59405 41.130859 140.54102 C 39.721205 140.99168 38.800781 142.62046 38.800781 144.66016 C 38.800781 149.13381 34.504378 149.18347 30.083984 144.76172 C 27.581172 142.25814 26.814453 140.0855 26.814453 135.49219 C 26.814453 130.35508 27.550593 128.72033 31.935547 124.10938 C 38.383059 117.32954 40.68927 117.06656 38.037109 123.41602 C 34.771025 131.23526 39.868263 136.593 47.335938 133.18945 C 51.110118 131.46927 53.307719 126.04277 51.117188 123.85156 C 49.11649 121.85025 42.130859 123.02849 42.130859 125.36719 C 42.130859 126.4562 43.265605 127.5645 44.654297 127.83203 C 46.513615 128.19021 46.963992 127.75653 46.361328 126.18555 C 45.839773 124.82598 46.253564 124.05273 47.5 124.05273 C 50.12886 124.05273 50.002764 128.88512 47.347656 129.9043 C 43.660288 131.31971 41.598716 130.78823 40.128906 128.04102 C 38.956731 125.85012 39.29622 124.76711 42.017578 122.04492 C 46.570724 117.49038 51.47197 117.7492 55.693359 122.76758 C 60.721295 128.74477 66.176419 131.12623 73.064453 130.34961 C 85.121559 128.99019 89.467829 118.5797 81.363281 110.47266 C 78.110686 107.21911 76.556752 106.57361 73.458984 107.19336 C 70.207771 107.8438 69.53684 107.50232 69.183594 105.01758 C 68.847361 102.65254 67.898898 102.07439 64.373047 102.08789 C 60.460201 102.10279 60.062506 101.77336 60.742188 99.064453 C 61.161909 97.39164 60.837328 94.774887 60.021484 93.25 C 56.662649 86.972035 71.379642 79.100544 83.699219 80.585938 C 96.245673 82.098686 102.89631 87.927014 104.77539 99.052734 C 105.78189 105.01202 104.53779 107.29435 102.41016 103.39258 C 99.198192 97.50221 89.933145 89.635806 85.150391 88.738281 C 76.025044 87.02583 68.640199 93.785566 72.935547 99.919922 C 75.023731 102.90214 79.343719 103.68429 80.791016 101.3418 C 81.381419 100.38621 82.245156 100.43522 83.525391 101.49805 C 84.554673 102.35262 86.869305 102.76973 88.667969 102.42578 C 91.209563 101.93977 92.027261 102.41528 92.337891 104.55664 C 92.651644 106.71956 96.390728 109.70177 101.0918 111.53906 C 102.52916 112.1008 98.999826 116.49938 95.251953 118.81641 C 89.922917 122.11094 87.646221 125.82733 87.792969 130.99023 C 87.892439 134.48984 87.566363 134.70898 82.291016 134.70898 C 75.172222 134.70898 70.763672 137.6934 70.763672 142.51172 C 70.763672 149.48876 77.602026 152.01508 80.322266 146.04297 C 81.469066 143.52524 82.254252 143.07083 83.566406 144.16016 C 85.618168 145.86349 88.076172 144.66397 88.076172 141.95898 C 88.076172 139.19153 90.208603 139.58127 95.78125 143.36914 L 100.67969 146.69922 L 95.873047 146.69922 C 93.224627 146.69922 90.321575 147.59638 89.408203 148.69727 C 88.004447 150.38921 88.298839 150.69531 91.330078 150.69531 C 95.473171 150.69531 99.470944 152.54769 103.75195 156.44922 L 106.77539 159.20508 L 108.71484 156.43359 C 111.19005 152.89863 116.18773 151.64159 120.79688 153.39453 C 125.76139 155.28261 126.42634 153.99675 122.5957 149.91797 C 120.03736 147.1939 118.4139 146.59822 114.72266 147.0293 C 111.01845 147.46187 109.55948 146.92055 107.55469 144.37109 C 105.72639 142.04608 104.20058 141.38012 101.98047 141.9375 C 99.71351 142.50665 98.211825 141.79747 96.164062 139.19336 C 92.915965 135.0628 92.686791 132.19005 95.320312 128.63672 C 96.951104 126.43634 97.642836 126.29985 99.962891 127.7168 C 101.46249 128.63266 103.44557 129.40138 104.37109 129.42578 C 106.84477 129.49088 112.04688 134.17551 112.04688 136.33789 C 112.04685 138.53814 116.88595 144.03516 118.82227 144.03516 C 119.56118 144.03516 121.50992 142.58352 123.1543 140.80859 L 126.14453 137.58008 L 128.39648 143.92188 C 130.91623 151.01853 143.11222 165.18215 152.01758 171.35547 C 155.10112 173.49301 157.10728 175.35084 156.47656 175.48242 C 142.09448 178.4829 136.19703 178.90136 132.60742 177.17969 C 128.16861 175.05072 125.37306 170.27282 126.35938 166.5 C 127.30464 162.88425 136.42808 163.43986 137.13281 167.15625 C 137.78484 170.59474 135.17998 173.0361 133.08984 170.94531 C 131.84687 169.70196 131.84687 169.3457 133.08984 169.3457 C 133.9688 169.3457 134.6875 168.74636 134.6875 168.01367 C 134.6875 167.28098 133.48837 166.68164 132.02344 166.68164 C 128.47736 166.68164 128.47736 171.44342 132.02344 173.3418 C 138.5608 176.84157 143.3351 168.54965 137.9082 163.12109 C 133.43795 158.64947 126.91385 159.24026 124.07422 164.37305 C 122.18376 167.79017 122.2481 168.45111 124.95703 173.43164 L 127.88086 178.80273 L 124.95703 177.91797 C 117.08954 175.53422 112.52422 164.68961 118.70703 163.07227 C 122.07416 162.19149 122.10838 160.51019 118.79492 158.73633 C 115.01347 156.71193 112.36426 157.04112 109.51758 159.88867 C 107.78162 161.62515 106.55626 161.98819 105.61523 161.04688 C 103.97075 159.40186 91.002542 154.87416 90.208984 155.66797 C 88.956628 156.92071 92.244214 164.71916 95.425781 168.04102 C 98.439433 171.18756 98.597743 171.79406 96.785156 173.29883 C 92.419004 176.92351 96.409739 183.61168 96.931641 184 L 104.13672 184 C 103.69474 182.84789 103.35377 178.65451 104.10938 177.24219 C 106.13805 173.45041 112.16662 174.01761 121.74023 178.90039 C 129.49319 182.8546 131.91433 183.01816 138.4043 184 L 165.32422 184 C 172.84234 178.61524 180.30749 181.18475 177.10938 184 L 184 184 C 182.42547 183.49177 182.84071 180.77954 184 179.52734 L 184 175.61914 C 174.04146 180.85303 149.95665 165.93231 145.18945 155.43359 C 141.63305 147.60138 142.12464 145.82549 146.54102 150.55469 C 151.02607 155.35743 155.81311 155.91003 159.32227 152.03125 C 165.1499 145.58981 159.67057 134.70898 150.59961 134.70898 C 145.06758 134.70898 143.18807 136.39505 140.58594 143.68945 L 138.79883 148.69727 L 138.74219 141.73828 C 138.68799 135.28263 138.98139 134.62312 142.79883 132.64844 C 145.06235 131.47757 147.66419 130.80859 148.58008 131.16016 C 149.49597 131.51173 151.07626 131.28604 152.0918 130.6582 C 153.26536 129.93267 154.77899 130.27753 156.24805 131.60742 C 159.10675 134.1953 162.6543 133.02749 162.6543 129.49805 C 162.6543 123.33825 150.06276 120.4367 143.10938 124.99414 C 141.20093 126.245 138.47913 129.09284 137.06055 131.32227 C 134.74512 134.9612 134.57657 135.03472 135.4043 132.04492 C 138.40881 121.19262 156.06647 113.97133 159.76172 122.08398 C 160.73305 124.21644 162.77894 125.74196 165.35742 126.25781 C 168.18152 126.8228 169.3051 127.75113 169.04297 129.29883 C 168.83553 130.52371 169.68716 133.08149 170.93359 134.98438 C 173.14723 138.36383 173.12399 138.46368 169.94531 139.26172 C 167.95128 139.76234 166.36704 141.36739 165.85547 143.40625 C 163.95749 150.97074 173.49055 153.50394 179.50586 147.0332 C 182.45752 143.85807 182.81242 142.53734 182.17773 137.13086 C 181.38152 130.34858 176.52282 121.52549 171.73633 118.17188 L 168.7207 116.05859 L 172.3457 116.05859 C 174.68073 116.05859 175.97266 116.77169 175.97266 118.05859 C 175.97266 120.89221 182.84472 117.20658 184 116.86719 L 184 111.09375 L 175.98047 105.20703 L 174.67773 108.63477 C 172.94899 113.1831 172.64258 112.97172 172.64258 107.23047 C 172.64258 100.83491 167.28877 96.259374 162.6875 98.722656 C 160.59853 99.840983 159.89649 101.20186 160.30469 103.33789 C 160.91164 106.51391 157.87239 109.39844 153.91797 109.39844 C 151.60584 109.39844 136.60647 123.12845 134.38672 127.27734 C 133.62753 128.69635 132.56074 132.89788 132.01562 136.61328 C 131.05133 143.1859 131.02102 143.09565 130.85938 133.24219 C 130.66134 121.17029 133.12683 116.45637 143.05078 109.94336 C 155.49155 101.77859 159.48404 95.570913 157.98828 86.714844 C 156.71135 79.154526 148.90102 70.999607 142.01172 70.03125 C 135.60108 69.130171 126.35177 73.374846 122.14453 79.148438 C 116.31136 87.15329 120.55285 99.609678 130.19531 102.79297 C 134.37898 104.17413 135.42086 104.04371 138.49609 101.75586 C 144.48547 97.299992 143.4369 89.415569 136.85547 89.417969 C 134.34109 89.418886 134.0397 88.706092 134.17773 83.089844 C 134.33219 76.804546 134.36546 76.75755 139.19141 76.345703 C 143.11962 76.010469 144.81252 76.692392 148.02539 79.90625 C 154.74411 86.627019 152.38915 95.643568 141.83594 103.5957 C 131.81861 111.14405 128.29811 115.71018 126.58203 123.38086 L 124.93945 130.71875 L 122.67578 126.99609 C 116.70036 117.16728 102.99949 115.78506 94.621094 124.16602 C 93.03535 125.75225 92.000501 126.2262 92.320312 125.21875 C 92.640126 124.21129 96.567899 120.99166 101.04883 118.06445 C 105.52976 115.13723 110.14882 111.12622 111.31445 109.15234 C 115.15335 102.65162 124.58012 102.4745 126.18555 108.87305 C 127.84455 115.48502 118.89028 120.22772 116.50195 114.00195 C 116.05507 112.83704 116.36638 111.20615 117.19336 110.37891 C 118.31033 109.26161 119.18651 109.5427 120.60352 111.46875 C 122.44147 113.96693 122.54657 113.97152 123.4668 111.5957 C 125.31293 106.82939 117.09501 105.0911 114.24219 109.64453 C 112.04112 113.15771 115.60574 118.72461 120.05664 118.72461 C 125.72633 118.72461 128.92753 113.91763 128.24023 106.43555 C 127.90403 102.77552 121.30365 100.0685 115.76367 101.31836 C 111.03758 102.38459 111.01804 102.36926 110.33789 97.296875 C 109.46746 90.805741 105.25446 84.901537 98.253906 80.361328 C 93.356321 77.184995 91.446851 76.781984 81.244141 76.771484 C 70.2938 76.760207 69.833861 76.642275 71.490234 74.273438 C 74.244271 70.334793 71.381743 65.4375 66.326172 65.4375 z M 65.957031 68.572266 C 66.24277 68.552126 66.489844 68.595066 66.683594 68.714844 C 68.90049 70.085382 68.341342 73.154712 65.912109 72.949219 C 64.709125 72.847456 63.461663 73.513823 63.138672 74.429688 C 62.815682 75.345551 63.463566 76.09375 64.580078 76.09375 C 65.69659 76.09375 66.942401 76.631192 67.347656 77.287109 C 67.752911 77.943026 67.244424 78.801605 66.21875 79.195312 C 64.300176 79.931764 60.109375 76.27545 60.109375 73.865234 C 60.109375 71.964626 63.956859 68.713235 65.957031 68.572266 z M 163.08594 70.785156 C 164.68072 70.771756 165.3612 71.560948 165.06836 73.082031 C 164.23201 77.42615 158.61382 76.656036 158.69922 72.208984 C 158.73322 70.43825 158.96055 70.478336 160.11328 72.458984 C 160.8685 73.756607 162.11327 74.430375 162.87891 73.957031 C 163.785 73.396868 163.63896 72.696592 162.46289 71.951172 C 161.0712 71.069081 161.21567 70.800876 163.08594 70.785156 z M 11.609375 76.1875 C 10.400788 76.163207 9.2572126 76.781897 8.2109375 78.042969 C 6.7957111 79.748735 6.4422313 79.279474 3.3867188 77.890625 L 0 76.349609 L 0 83.996094 L 0 92.048828 L 4.9433594 92.080078 C 8.432712 92.080078 10.748095 91.037937 13.599609 88.185547 C 17.987402 83.796409 18.448981 81.237026 15.400391 78.1875 C 14.0924 76.879108 12.817962 76.211793 11.609375 76.1875 z M 128.2207 78.091797 L 127.54688 83.064453 C 127.17611 85.798624 127.45588 88.396458 128.16992 88.837891 C 128.88396 89.279323 129.09253 90.826515 128.63281 92.275391 C 127.87454 94.66526 128.24054 94.824971 132.57422 94.011719 C 136.80947 93.216938 137.35156 93.428764 137.35156 95.880859 C 137.35156 97.402007 136.17405 99.278098 134.73438 100.04883 C 132.60333 101.18969 131.35704 100.76435 128.0293 97.763672 C 122.52034 92.796145 121.38683 85.909847 125.33594 81.392578 L 128.2207 78.091797 z M 24.367188 80.015625 C 22.579507 80.142102 20.810691 81.220088 19.367188 83.423828 C 17.316648 86.554372 17.314624 89.996793 19.361328 94.814453 C 20.08182 96.510326 19.395088 96.784875 15.550781 96.335938 C 12.132304 95.936728 10.640651 96.364278 10.046875 97.912109 C 9.3205724 99.805614 2.7717558 97.905625 0 96.572266 L 0 102.57422 C 0.03814937 105.98063 -4.6259293e-18 107.33777 0 108.28711 C 4.9106413 109.57078 16.424801 110.65693 20.552734 108.93164 C 22.921171 107.94174 26.863501 104.84703 29.314453 102.05469 C 33.271827 97.546102 33.698898 96.324375 33.115234 91.144531 C 32.317505 84.064928 28.300082 79.737376 24.367188 80.015625 z M 82.25 92.492188 C 83.642958 92.475917 85.372555 92.739935 87.160156 93.330078 C 89.646291 94.150828 93.07116 96.302814 94.771484 98.113281 C 96.471845 99.923748 97.231395 101.40625 96.460938 101.40625 C 95.690477 101.40625 94.320027 100.51188 93.414062 99.419922 C 92.374426 98.166846 90.598906 97.727062 88.601562 98.228516 C 86.369163 98.788985 85.187605 98.371901 84.587891 96.808594 C 84.120313 95.589731 82.933849 94.898936 81.953125 95.275391 C 80.972401 95.651845 79.81307 95.383601 79.376953 94.677734 C 78.540064 93.323203 79.928404 92.519308 82.25 92.492188 z M 54.015625 105.94531 C 54.464663 106.10458 54.78125 106.93037 54.78125 108.11328 C 54.78125 109.82634 55.817437 111.25052 57.353516 111.65234 C 58.767783 112.02228 60.229467 113.11988 60.601562 114.08984 C 61.0128 115.16181 62.408741 115.55775 64.160156 115.09961 C 65.863057 114.65415 67.49582 115.08271 68.154297 116.14844 C 69.068673 117.62839 69.706541 117.55474 71.710938 115.74023 C 75.028164 112.73726 77.57281 114.63965 77.177734 119.82617 C 77.00064 122.15101 76.833961 123.9571 76.806641 123.83984 C 76.779321 123.72259 74.65934 123.41018 72.095703 123.14648 C 63.833106 122.29657 61.583196 121.42541 58.181641 117.75586 C 54.220599 113.48274 51.708066 107.14547 53.529297 106.01953 C 53.701477 105.91309 53.865946 105.89218 54.015625 105.94531 z M 0 111.09375 L 0 116.86719 C 1.75 116.28496 1.9462202 116.0156 3.1503906 115.55859 C 6.2891867 114.36733 6.0189257 112.50769 2.8984375 111.69141 C 2.3833875 111.55667 0.6326322 111.29771 0 111.09375 z M 184 120.29492 C 183.75913 120.20512 182.8418 121.34691 182.8418 122.7207 C 182.8418 124.55243 183.59188 125.4128 184 125.73438 L 184 120.29492 z M 104.76562 122.7832 C 105.60577 122.8103 106.63588 122.88518 107.87109 123.00391 C 114.76566 123.6666 120.03906 126.8085 120.03906 130.25391 C 120.03906 132.74133 116.50444 132.50723 115.52539 129.95508 C 114.99169 128.56386 113.82849 128.14919 112.04688 128.71484 C 110.26524 129.28047 109.10206 128.86583 108.56836 127.47461 C 108.12736 126.32505 106.66756 125.38477 105.32422 125.38477 C 103.98087 125.38477 102.46001 124.6995 101.94336 123.86328 C 101.43646 123.04286 102.24521 122.70201 104.76562 122.7832 z M 150.00195 138.70703 C 152.89744 138.70703 156.17337 142.7903 155.73438 145.85352 C 155.51227 147.40327 154.33658 148.85862 153.12305 149.08984 C 150.54591 149.58089 148.66595 147.27128 150.64648 146.04688 C 153.08764 144.53769 152.06411 142.70314 148.78125 142.70312 C 147.01112 142.70312 145.26203 143.45133 144.89258 144.36719 C 144.41997 145.53874 144.18923 145.56754 144.11523 144.46289 C 143.97559 142.37755 147.72956 138.70703 150.00195 138.70703 z M 102.07031 143.13867 C 102.41805 143.22417 102.86024 143.79656 103.18555 144.64453 C 104.08606 146.99196 103.31709 147.40472 102.00391 145.2793 C 101.5211 144.49785 101.41262 143.57186 101.76172 143.22266 C 101.84902 143.13536 101.9544 143.11019 102.07031 143.13867 z M 184 147.62891 C 182.68992 149.36328 179.34699 153.40407 181.3125 155.375 C 183.19924 157.26695 183.97866 157.74714 184 157.74805 L 184 147.62891 z M 76.853516 151.69727 C 75.716135 151.79027 74.565816 152.1058 73.4375 152.68945 C 69.207847 154.87736 67.523662 158.57618 67.90625 164.83984 C 68.150123 168.83252 67.92279 169.01979 62.052734 169.68164 C 55.539339 170.41601 45.478069 177.18454 45.935547 184 L 48.353516 184 L 50.771484 184 C 51.545109 178.70091 69.78352 174.28242 78.029297 179.04297 C 81.34889 180.95949 90.630418 184 86.228516 184 L 94.167969 184 L 88.882812 179.28906 C 86.046609 176.76102 81.113751 173.47589 77.957031 171.94727 C 71.837147 168.98379 70.018135 165.83984 71.349609 160.5332 C 73.064892 153.69686 84.637905 154.27903 83.8125 161.16016 C 83.293911 165.48347 81.069514 166.13125 79.404297 162.44336 C 77.366042 157.92932 74.757814 157.85403 74.757812 162.30859 C 74.757812 169.06198 80.636033 171.67112 85.640625 167.14062 C 92.072282 161.31827 84.815181 151.04661 76.853516 151.69727 z M 170.24414 153.64062 C 167.92392 153.80564 165.45988 155.12659 164.03125 157.68945 C 162.1975 160.97848 162.19644 161.72504 164.02539 164.99609 C 165.14599 166.99997 168.4436 169.98724 171.35156 171.63477 C 177.36403 175.04116 183.96289 175.6605 183.96289 172.81836 C 183.96289 171.79772 183.00285 170.5935 181.82812 170.14258 C 180.58777 169.66647 180.01593 168.47608 180.4668 167.30078 C 180.90463 166.15945 180.09391 164.2927 178.60742 163.01953 C 177.15771 161.77787 175.97266 159.76947 175.97266 158.55664 C 175.97266 155.12829 173.22729 153.42847 170.24414 153.64062 z M 101.19727 164.05859 C 102.54795 164.11339 104.13314 164.62699 105.06641 165.56055 C 106.20132 166.69575 107.07861 166.70995 108.39258 165.61914 C 109.78903 164.45982 110.50007 164.99467 111.66211 168.07422 C 113.08964 171.85732 113.00102 172.00977 109.37695 172.00977 C 107.30308 172.00977 104.50969 172.42223 103.16797 172.92578 C 101.05834 173.71749 100.96457 173.5509 102.47852 171.6875 C 103.96702 169.85543 103.81821 169.31205 101.48047 168.06055 C 99.968237 167.25098 98.730469 166.00964 98.730469 165.30273 C 98.730469 164.40701 99.846573 164.00384 101.19727 164.05859 z M 116.96484 181.40039 C 115.258 181.40039 111.97639 182.85675 110.72461 184 L 115.87695 184 L 121.42773 184 C 120.95647 183.5535 118.67169 181.40039 116.96484 181.40039 z M 73.285156 181.89648 C 71.668129 181.92542 70.125854 182.47151 70.166016 184 L 74.242188 184 C 74.311253 183.99865 74.354784 183.98013 74.425781 183.98047 C 76.806302 183.99167 80.216684 184 79.660156 184 C 76.872346 184 77.371363 182.82118 75.951172 182.30273 C 75.252224 182.04758 74.255373 181.87912 73.285156 181.89648 z " />
  </g>
</svg>
