<?xml version="1.0" encoding="UTF-8" standalone="no"?>
<!-- Created with Inkscape (http://www.inkscape.org/) -->

<svg
   version="1.1"
   id="svg1"
   width="161.33333"
   height="150.66667"
   viewBox="0 0 161.33333 150.66667"
   sodipodi:docname="angle.svg"
   inkscape:version="1.4 (86a8ad7, 2024-10-11)"
   xmlns:inkscape="http://www.inkscape.org/namespaces/inkscape"
   xmlns:sodipodi="http://sodipodi.sourceforge.net/DTD/sodipodi-0.dtd"
   xmlns="http://www.w3.org/2000/svg"
   xmlns:svg="http://www.w3.org/2000/svg">
  <defs
     id="defs1" />
  <sodipodi:namedview
     id="namedview1"
     pagecolor="#505050"
     bordercolor="#ffffff"
     borderopacity="1"
     inkscape:showpageshadow="0"
     inkscape:pageopacity="0"
     inkscape:pagecheckerboard="1"
     inkscape:deskcolor="#505050"
     inkscape:zoom="7.5199113"
     inkscape:cx="80.719038"
     inkscape:cy="75.333336"
     inkscape:window-width="2560"
     inkscape:window-height="1351"
     inkscape:window-x="-9"
     inkscape:window-y="-9"
     inkscape:window-maximized="1"
     inkscape:current-layer="g1" />
  <g
     inkscape:groupmode="layer"
     inkscape:label="Image"
     id="g1">
    <path
       style="fill:#000000"
       d="m 142.76461,137.07519 c -0.6857,-1.69135 -1.60415,-4.74298 -2.041,-6.78138 -0.43684,-2.03841 -2.27837,-4.99662 -4.09227,-6.57379 -3.07268,-2.67166 -3.30068,-3.73934 -3.3371,-15.62713 -0.0479,-15.630658 -3.51044,-21.410319 -12.21782,-20.393782 -10.35899,1.209355 -17.71907,-6.331374 -17.44875,-17.877033 0.16624,-7.100166 0.13662,-7.155406 -3.836011,-7.155406 -3.710469,0 -3.942277,-0.278939 -3.166626,-3.810456 l 0.836916,-3.810456 -6.510171,0.625545 C 79.260679,56.794668 71.386407,49.673975 72.1791,38.695195 72.814878,29.88968 67.373376,26.666668 51.871,26.666668 c -11.952424,0 -12.561403,-0.146053 -16.491399,-3.955155 -2.244376,-2.175336 -6.428839,-4.443029 -9.298805,-5.03932 -2.869967,-0.596291 -5.462223,-1.816471 -5.76057,-2.711512 -1.349751,-4.049254 69.917266,-1.557829 72.4453,2.532616 0.396111,0.64092 -0.964088,0.469628 -3.022664,-0.380649 -3.736923,-1.543503 -61.782953,-3.46236 -60.374772,-1.995839 5.629985,5.863233 11.00438,7.549858 24.057455,7.549858 12.643861,0 13.365011,0.152259 14.468553,3.054797 2.00807,5.281624 5.080412,7.016566 7.902564,4.462553 4.287111,-3.879783 13.536669,-1.602895 13.536669,3.332211 0,5.36199 -6.75138,8.532394 -10.4,4.883773 -2.439175,-2.439175 -2.086105,5.645972 0.401656,9.197749 4.402189,6.285004 16.309626,4.868778 20.061221,-2.386007 4.594922,-8.885596 0.52458,-19.046872 -9.865061,-24.62733 -3.408799,-1.830926 -4.697816,-2.935423 -2.864483,-2.454437 5.831189,1.529845 10.152925,4.266199 14.428006,9.135247 4.17069,4.750152 10.96502,6.540927 12.90533,3.401445 0.46501,-0.752401 -0.62108,-1.333334 -2.49274,-1.333334 -4.56395,0 -7.50726,-3.354196 -7.50726,-8.555255 0,-10.490124 16.05221,-13.4220803 21.69838,-3.963235 0.79631,1.334028 2.13176,0.981904 5.85273,-1.543218 11.93661,-8.1004011 22.40964,2.7923 12.66144,13.168793 l -3.06018,3.257409 3.36959,3.369591 c 4.51952,4.519526 5.41435,8.908416 2.99625,14.695761 -3.36593,8.055806 -14.13604,8.49688 -17.40893,0.712957 -1.61671,-3.845014 -1.7703,-3.916416 -2.49157,-1.15827 -1.02742,3.928874 0.0655,6.401898 3.28023,7.422207 2.92775,0.929231 10.45315,11.913915 10.40476,15.187636 -0.0168,1.139761 -1.25889,-0.04491 -2.76009,-2.632611 -3.88816,-6.702181 -10.19067,-10.62843 -17.06102,-10.62843 -14.82881,0 -18.89315,19.919065 -4.78675,23.459548 4.26627,1.070766 5.25291,0.179872 3.4766,-3.139211 -2.91177,-5.440686 5.7906,-11.158292 10.22856,-6.720337 2.17268,2.172689 1.94483,7.831959 -0.44241,10.988173 -2.80018,3.702169 -2.51264,4.507612 2.70907,7.588496 l 4.66667,2.753401 v 13.272371 c 0,11.96019 0.32955,13.75735 3.33333,18.17781 l 3.33334,4.90544 -0.0585,-27.30951 c -0.0429,-19.999071 -0.56215,-28.723523 -1.93993,-32.591806 -2.48582,-6.979254 -1.33363,-7.868372 1.62731,-1.255762 1.97772,4.41679 2.37817,10.091319 2.64522,37.483438 0.30332,31.11192 -0.50519,38.20682 -3.50946,30.79647 z M 108.59106,57.03666 c 3.34653,-4.777844 2.67771,-7.703325 -1.76114,-7.703325 -4.34877,0 -6.20958,1.730769 -7.533942,7.007459 -1.22949,4.898679 5.973612,5.437931 9.295082,0.695866 z m -6.49769,-0.885582 c -0.9074,-1.4682 2.4902,-4.456395 3.69597,-3.250619 0.48253,0.482526 0.87732,1.677321 0.87732,2.655098 0,1.986266 -3.43715,2.433842 -4.57329,0.595521 z m 13.65378,-7.254142 c 0.4185,-4.952255 -8.45792,-7.807003 -11.08049,-3.563601 -0.49222,0.796438 1.14771,1.333333 4.07265,1.333333 4.69201,0 4.87193,0.168694 4.30434,4.035893 -0.37014,2.521938 -0.0518,3.858725 0.84867,3.563601 0.79255,-0.259761 1.62723,-2.675913 1.85483,-5.369226 z m 9.58618,1.399741 c 0,-6.81599 9.66385,-12.488674 12.75495,-7.487164 0.60992,0.986879 -1e-5,1.186616 -1.84011,0.60259 -4.02648,-1.277955 -6.14965,3.183412 -3.39001,7.123349 2.92947,4.182401 9.68627,3.394522 12.38955,-1.444686 2.62092,-4.691774 0.7966,-10.056148 -4.67356,-13.742484 l -4.0573,-2.734216 4.40824,-4.118637 c 6.94363,-6.487463 5.5216,-13.828762 -2.67866,-13.828762 -2.56692,0 -5.06529,1.286123 -7.35688,3.787215 l -3.46999,3.787214 -4.20055,-4.453881 c -8.39553,-8.9018486 -21.99007,-2.614362 -16.50544,7.633774 2.52035,4.709307 11.29598,2.377595 9.72312,-2.583462 -0.59498,-1.876678 -0.49328,-1.899832 0.75045,-0.17086 3.19641,4.4435 -2.13084,12.000001 -8.45987,12.000001 -2.91562,0 -3.39394,0.589909 -3.39394,4.185721 v 4.185722 l 6.49349,-0.769058 6.49349,-0.769058 -0.66689,5.91667 c -0.66297,5.88186 -0.64234,5.91667 3.50651,5.91667 3.45401,0 4.1734,-0.523444 4.1734,-3.036658 z m 10.27846,-0.462654 c -0.51982,-0.519823 -0.94513,-1.565132 -0.94513,-2.32291 0,-0.878009 0.54258,-0.835196 1.49581,0.118029 2.19991,2.19991 5.17086,0.534573 5.17086,-2.898475 0,-10.208036 -14.86161,-9.360712 -19.41744,1.107071 -0.99633,2.289245 -1.835,3.382468 -1.8637,2.429384 -0.36009,-11.956132 16.75983,-16.972352 22.56604,-6.611959 2.97136,5.301996 -2.95973,12.225566 -7.00644,8.17886 z M 115.85323,36.805992 c 6.6174,-3.66774 8.607,-11.711324 4.09483,-16.554576 -4.23636,-4.547193 -10.82428,-2.195285 -8.77917,3.134189 0.46047,1.199956 0.24062,1.740168 -0.5175,1.271624 -1.81478,-1.121596 -1.65503,-5.120258 0.28194,-7.057228 C 115.40192,13.131407 124,18.867311 124,26.316969 c 0,4.727555 -5.66903,12.376038 -9.11853,12.302452 -1.60329,-0.0342 -1.33498,-0.534898 0.97176,-1.813429 z M 128,30.666668 c 0,-0.733334 0.45,-1.337127 1,-1.341764 0.55,-0.0046 2.02209,-1.804637 3.27132,-4 1.24922,-2.195363 3.19922,-3.99157 4.33333,-3.99157 3.23384,0 2.45619,1.827021 -2.73317,6.421335 C 128.67322,32.35686 128,32.690749 128,30.666668 Z m -14.5699,45.82019 c -8.32752,-10.586731 7.9254,-21.088522 18.16221,-11.735475 l 3.74102,3.418048 -3.63257,-2.215718 c -10.81883,-6.599049 -22.91374,1.628834 -16.29183,11.082948 2.89831,4.137905 1.37577,3.714881 -1.97883,-0.549803 z m -31.556786,-31.359925 -2.539983,-2.873069 3.601382,2.316973 c 9.034527,5.812421 17.587887,-6.853898 10.989679,-16.274161 -1.141583,-1.629838 -1.732764,-2.963342 -1.313736,-2.963342 1.637413,0 6.046309,8.855298 6.051023,12.153522 0.01282,8.966839 -11.131722,14.038514 -16.788365,7.640077 z"
       id="path1" />
  </g>
</svg>
