<?xml version="1.0" encoding="UTF-8" standalone="no"?>
<!-- Created with Inkscape (http://www.inkscape.org/) -->

<svg
   version="1.1"
   id="svg1"
   width="29.333332"
   height="44"
   viewBox="0 0 29.333332 44"
   sodipodi:docname="column1.svg"
   inkscape:version="1.4 (86a8ad7, 2024-10-11)"
   xmlns:inkscape="http://www.inkscape.org/namespaces/inkscape"
   xmlns:sodipodi="http://sodipodi.sourceforge.net/DTD/sodipodi-0.dtd"
   xmlns="http://www.w3.org/2000/svg"
   xmlns:svg="http://www.w3.org/2000/svg">
  <defs
     id="defs1" />
  <sodipodi:namedview
     id="namedview1"
     pagecolor="#505050"
     bordercolor="#ffffff"
     borderopacity="1"
     inkscape:showpageshadow="0"
     inkscape:pageopacity="0"
     inkscape:pagecheckerboard="1"
     inkscape:deskcolor="#505050"
     inkscape:zoom="25.75"
     inkscape:cx="14.679612"
     inkscape:cy="22"
     inkscape:window-width="2560"
     inkscape:window-height="1351"
     inkscape:window-x="-9"
     inkscape:window-y="-9"
     inkscape:window-maximized="1"
     inkscape:current-layer="g1" />
  <g
     inkscape:groupmode="layer"
     inkscape:label="Image"
     id="g1">
    <path
       style="fill:#000000"
       d="M 3.9999998,41.134552 C 3.9999998,40.510548 5.1999998,40 6.6666664,40 10.277172,40 10.021832,37.610535 6.0144575,33.896625 2.4741866,30.615613 2.633398,28.749489 6.9693317,22.704504 10.05922,18.396705 11.303498,20.049544 9.2486228,25.732202 8.2911665,28.38 8.0357695,31.391783 8.6465632,32.832024 9.5415144,34.942303 9.8610735,34.651762 10.69069,30.973519 11.231529,28.575621 13.213843,24.375621 15.095833,21.640186 23.070835,10.048676 22.449425,3.1505068 13.539441,4.3629246 10.859415,4.7276066 7.1666664,4.5978748 5.3333331,4.0746315 2.9936816,3.4068824 5.4604575,2.8222556 13.608202,2.1134847 26.20772,1.0174547 27.999999,1.4391533 27.999999,5.4996779 c 0,3.5349017 -1.43795,6.0690741 -9.450533,16.6551651 -6.156279,8.133571 -6.64842,9.313489 -5.851661,14.029466 0.478457,2.831963 0.367183,5.242939 -0.247275,5.357723 -4.0755212,0.761329 -8.4505302,0.550369 -8.4505302,-0.40748 z M 17.414102,40.080769 c -2.841674,-2.841673 -3.32901,-5.013779 -1.938118,-8.638386 1.34301,-3.499826 3.306147,-2.366675 2.368955,1.367396 -0.568886,2.266621 -0.251874,3.860032 0.910936,4.578689 4.444777,2.747023 5.311026,-3.248734 1.220656,-8.448797 -4.330978,-5.505947 -0.602448,-5.460836 3.962596,0.04794 5.381248,6.493717 5.291308,12.793307 -0.191692,13.426489 -2.267517,0.261854 -4.596011,-0.596012 -6.333333,-2.333334 z m 6.91923,-13.455652 c -1.65,-0.663219 -3,-1.408619 -3,-1.656445 0,-0.247826 1.5,-2.483729 3.333334,-4.968672 l 3.333333,-4.518079 v 6.259039 c 0,3.442472 -0.15,6.221008 -0.333334,6.174525 -0.183333,-0.04648 -1.683333,-0.627149 -3.333333,-1.290368 z M 8.9257449,17.199405 C 5.7151056,14.552925 3.9999998,12.012349 3.9999998,9.9029281 c 0,-2.9894708 0.5023855,-3.2362614 6.5879772,-3.2362614 3.623387,0 6.93101,0.5550386 7.350272,1.2334191 C 19.143312,9.8499183 15.788113,16 13.519313,16 11.92281,16 11.822222,15.644444 13.066666,14.4 15.52025,11.946416 14.970128,9.3333333 11.999999,9.3333333 c -3.4469057,0 -3.3896435,2.7212597 0.152006,7.2237387 4.00759,5.094824 2.531834,5.388641 -3.2262601,0.642333 z"
       id="path1" />
  </g>
</svg>
