<?xml version="1.0" encoding="UTF-8" standalone="no"?>
<!-- Created with Inkscape (http://www.inkscape.org/) -->

<svg
   version="1.1"
   id="svg1"
   width="34.666668"
   height="72"
   viewBox="0 0 34.666668 72"
   sodipodi:docname="column2.svg"
   inkscape:version="1.4 (86a8ad7, 2024-10-11)"
   xmlns:inkscape="http://www.inkscape.org/namespaces/inkscape"
   xmlns:sodipodi="http://sodipodi.sourceforge.net/DTD/sodipodi-0.dtd"
   xmlns="http://www.w3.org/2000/svg"
   xmlns:svg="http://www.w3.org/2000/svg">
  <defs
     id="defs1" />
  <sodipodi:namedview
     id="namedview1"
     pagecolor="#505050"
     bordercolor="#ffffff"
     borderopacity="1"
     inkscape:showpageshadow="0"
     inkscape:pageopacity="0"
     inkscape:pagecheckerboard="1"
     inkscape:deskcolor="#505050"
     inkscape:zoom="15.736111"
     inkscape:cx="17.348632"
     inkscape:cy="36"
     inkscape:window-width="2560"
     inkscape:window-height="1351"
     inkscape:window-x="-9"
     inkscape:window-y="-9"
     inkscape:window-maximized="1"
     inkscape:current-layer="g1" />
  <g
     inkscape:groupmode="layer"
     inkscape:label="Image"
     id="g1">
    <path
       style="fill:#000000"
       d="M 7.3239143,69.546136 C 6.9624282,69.18465 6.6666669,63.888889 6.6666669,57.777778 c 0,-11.936706 1.2488737,-13.69438 6.0000001,-8.444445 C 15.009033,51.921619 14.995512,52 12.206651,52 c -2.5431289,0 -2.8733173,0.735459 -2.8733173,6.4 0,7.655471 1.6204413,9.6 8.0000003,9.6 2.64,0 5.52,-0.72 6.4,-1.6 1.949289,-1.949289 2.116165,-8.590281 0.244918,-9.746775 -0.745296,-0.460618 -0.985729,-1.435114 -0.534297,-2.165546 2.091553,-3.384204 9.69339,9.432401 8.219083,13.857274 -0.378934,1.137303 -4.169353,1.686859 -12.116658,1.756739 -6.36087,0.05593 -11.8609797,-0.19407 -12.2224657,-0.555556 z m 5.4183577,-7.176144 c -1.141583,-1.629838 -2.075605,-3.455543 -2.075605,-4.057122 0,-0.601578 2.769404,-4.054496 6.154231,-7.67315 6.400175,-6.842304 7.261916,-11.669742 1.829567,-10.249151 -1.457755,0.381212 -2.650464,0.149284 -2.650464,-0.515395 0,-1.634786 4.906823,-1.530592 8.087655,0.171738 4.200403,2.247987 3.299493,8.481252 -2.087655,14.444181 C 17.645984,59.310469 15.892482,64 18.444445,64 c 2.240833,0 2.822537,-1.807025 1.210654,-3.760816 -1.354657,-1.642004 -1.292049,-1.887348 0.344902,-1.351575 1.1,0.360029 2.19173,1.957602 2.426068,3.550162 0.356889,2.425424 -0.226173,2.895562 -3.591062,2.895562 -2.639697,0 -4.728833,-1.016099 -6.092735,-2.963341 z M 12.41655,41.108144 C 9.935406,36.548086 8.516635,34.990833 8.2232327,36.50553 c -0.2438888,1.259083 0.2916116,3.174917 1.190001,4.25741 2.1350833,2.572618 0.371713,4.332155 -1.8283347,1.824362 -1.1297355,-1.287765 -1.4049361,-3.897701 -0.8351789,-7.920635 0.46737,-3.3 0.9398798,-5.171658 1.0500219,-4.15924 0.1101421,1.012418 2.1813717,4.612418 4.602733,8 C 18.490292,47.024531 19.013632,48 17.495239,48 16.764396,48 14.478986,44.898665 12.41655,41.108144 Z m 17.001299,3.13209 c -0.0955,-1.988584 -8.01363,-14.000419 -9.681873,-14.687448 -0.597258,-0.245967 -0.704341,-1.064627 -0.237962,-1.819244 0.466379,-0.754616 2.667655,1.54663 4.891726,5.113881 2.22407,3.567251 4.302951,5.715737 4.619734,4.774414 0.316783,-0.941323 -0.211656,-2.660527 -1.174309,-3.820453 -1.504586,-1.812914 -1.381906,-2.038977 0.873945,-1.610436 3.064137,0.58209 4.067949,5.60589 2.103425,10.527055 -0.720594,1.805099 -1.348202,2.490102 -1.394686,1.522231 z M 12.761905,33.904762 c -3.314283,-3.314283 -2.4969,-6.611826 3.298797,-13.308231 5.288829,-6.110764 6.018622,-8.57009 2.855965,-9.624309 -0.91403,-0.304677 -1.583333,0.759162 -1.583333,2.516667 0,2.267539 -0.38543,2.659014 -1.510377,1.534068 -2.132966,-2.132966 -0.413953,-5.6896237 2.749924,-5.6896237 2.948519,0 8.093787,4.8426687 8.093787,7.6177817 0,0.97989 -2.7,4.280249 -6.000001,7.334132 C 13.71,30.723079 12.949622,34.22943 18.333334,35.044994 l 3.666667,0.555454 -3.571429,0.199776 c -1.964286,0.109877 -4.514286,-0.743081 -5.666667,-1.895462 z M 25.600001,26.4 c -2.267142,-2.267142 -1.994773,-3.319081 1.066667,-4.119665 2.042594,-0.534151 2.666666,-1.818688 2.666666,-5.488842 0,-8.1876133 -7.494918,-12.6296962 -14.754322,-8.7445813 -2.843521,1.5218061 -3.537918,7.7941813 -1.129502,10.2025983 0.956427,0.956427 0.992746,1.731805 0.106767,2.27937 C 11.331448,21.9039 6.6666669,14.653314 6.6666669,9.8201884 l 0,-4.4868551 H 18.666667 30.666668 V 16.666667 c 0,11.510823 -1.126025,13.673975 -5.066667,9.733333 z"
       id="path1" />
  </g>
</svg>
