<?xml version="1.0" encoding="UTF-8" standalone="no"?>
<!-- Created with Inkscape (http://www.inkscape.org/) -->

<svg
   version="1.1"
   id="svg1"
   width="1116"
   height="242"
   viewBox="0 0 1116 242"
   sodipodi:docname="flag label.svg"
   inkscape:version="1.4 (86a8ad7, 2024-10-11)"
   xmlns:inkscape="http://www.inkscape.org/namespaces/inkscape"
   xmlns:sodipodi="http://sodipodi.sourceforge.net/DTD/sodipodi-0.dtd"
   xmlns="http://www.w3.org/2000/svg"
   xmlns:svg="http://www.w3.org/2000/svg">
  <defs
     id="defs1" />
  <sodipodi:namedview
     id="namedview1"
     pagecolor="#505050"
     bordercolor="#ffffff"
     borderopacity="1"
     inkscape:showpageshadow="0"
     inkscape:pageopacity="0"
     inkscape:pagecheckerboard="1"
     inkscape:deskcolor="#505050"
     inkscape:zoom="1.4142136"
     inkscape:cx="835.09311"
     inkscape:cy="235.113"
     inkscape:window-width="2560"
     inkscape:window-height="1351"
     inkscape:window-x="-9"
     inkscape:window-y="-9"
     inkscape:window-maximized="1"
     inkscape:current-layer="g1" />
  <g
     inkscape:groupmode="layer"
     inkscape:label="Image"
     id="g1">
    <path
       d="M 13.03125,28 9.765625,30.917969 6.5,33.835937 v 90.658203 90.66016 l 3.734375,3.42187 L 13.970703,222 H 558.81836 c 299.66641,0 545.14904,-0.29935 545.51564,-0.66602 1.0879,-1.08788 0.8479,-1.54616 -4.3672,-8.33398 -2.7467,-3.575 -5.8313,-7.625 -6.8535,-9 -14.9208,-20.07111 -28.2811,-37.8351 -29.4336,-39.13477 -0.7974,-0.89933 -2.5138,-3.12338 -3.8145,-4.9414 -1.3006,-1.81801 -6.7527,-9.08469 -12.1152,-16.14844 -5.3625,-7.06374 -9.75,-13.34993 -9.75,-13.96875 0,-0.9114 30.2648,-47.071399 32,-48.80664 1.0592,-1.059162 5,-6.947527 5,-7.470703 0,-0.302912 1.575,-2.794703 3.5,-5.539063 l 7,-9.980468 c 1.925,-2.74436 3.5,-5.236151 3.5,-5.539063 0,-0.523176 3.9408,-6.411541 5,-7.470703 2.2288,-2.228815 9.941,-15.284453 9.4746,-16.039063 C 1103.0965,28.349222 905.10866,28 557.95703,28 Z m 545.56445,8.5 c 504.815,0 527.8918,0.07762 528.2188,1.775391 0.2022,1.049677 -11.7951,19.95694 -29.3516,46.255859 -19.4495,29.13462 -29.5321,45.09929 -29.2246,46.27539 0.4644,1.77553 48.0399,65.4695 56.4082,75.51953 2.3081,2.77194 3.0098,5.68552 1.6875,7.00781 C 1085.9674,213.70065 848.42107,214 558.45508,214 98.795652,214 31.089684,213.81475 30.039062,212.54883 c -0.662761,-0.79858 -1.047869,-2.26108 -0.857421,-3.25 0.332629,-1.72722 20.905705,-1.81852 522.332029,-2.29883 521.29683,-0.49934 521.98513,-0.50264 521.64063,-2.5 -0.6993,-4.05375 -5.3305,-4.11761 -2.9512,-0.74609 0.6156,0.87222 -1.6326,0.39392 -2.1582,0.71875 -0.5256,0.32483 -233.95235,0.57308 -518.72459,0.55078 -462.854629,-0.0363 -517.928206,-0.20381 -519.292966,-1.56836 -1.338862,-1.33865 -1.551618,-10.96319 -1.72461,-78.24024 -0.166233,-64.648459 0.02595,-77.054409 1.216797,-78.876949 l 1.41211,-2.164063 519.285159,0.164063 522.885,0.493565 -55.7015,83.592594 52.8028,75.32986 2.1165,-1.25286 -51.4973,-74.29709 c 1.2818,-1.74233 54.0911,-82.985053 53.789,-83.772319 C 1074.1358,43.192317 1004.0991,43 552.6543,43 78.135122,43 31.125936,42.857407 29.929687,41.416016 28.975805,40.266659 28.903322,39.375138 29.666016,38.166016 30.644659,36.614545 67.059393,36.5 558.5957,36.5 Z"
       id="path2"
       sodipodi:nodetypes="cccccccssscssssssccsssscssssssssssssssssccccccccsssss" />
  </g>
</svg>
