<?xml version="1.0" encoding="UTF-8" standalone="no"?>
<!-- Created with Inkscape (http://www.inkscape.org/) -->

<svg
   version="1.1"
   id="svg1"
   width="30"
   height="165"
   viewBox="0 0 30 165"
   sodipodi:docname="frame.svg"
   xml:space="preserve"
   inkscape:version="1.4.3 (0d15f75042, 2025-12-25)"
   xmlns:inkscape="http://www.inkscape.org/namespaces/inkscape"
   xmlns:sodipodi="http://sodipodi.sourceforge.net/DTD/sodipodi-0.dtd"
   xmlns="http://www.w3.org/2000/svg"
   xmlns:svg="http://www.w3.org/2000/svg"><defs
     id="defs1" /><sodipodi:namedview
     id="namedview1"
     pagecolor="#ffffff"
     bordercolor="#000000"
     borderopacity="0.25"
     inkscape:showpageshadow="2"
     inkscape:pageopacity="0.0"
     inkscape:pagecheckerboard="0"
     inkscape:deskcolor="#d1d1d1"
     inkscape:zoom="5.6568543"
     inkscape:cx="-70.887455"
     inkscape:cy="43.575455"
     inkscape:window-width="2560"
     inkscape:window-height="1388"
     inkscape:window-x="0"
     inkscape:window-y="0"
     inkscape:window-maximized="1"
     inkscape:current-layer="g1" /><g
     inkscape:groupmode="layer"
     inkscape:label="Image"
     id="g1"
     transform="translate(-6.359375,-3.4160156)"><path
       id="path25"
       style="fill:#8f2c3e;fill-opacity:1;stroke:none;stroke-width:0.245669"
       d="M 21.359375,3.4160156 13.539062,14.886719 c -1.375721,-0.274224 -2.746406,0.08166 -3.8261714,1.679687 -0.9482365,1.546241 -0.640124,3.805129 -0.3300781,4.416016 L 6.359375,25.416016 V 145.41602 l 3.0292969,4.64453 c -0.311924,0.59422 -0.6298291,2.87005 0.3242187,4.42578 1.0405134,1.53993 2.3507844,1.92827 3.6757814,1.70898 l 7.970703,12.22071 7.970703,-12.22071 c 1.32501,0.21929 2.637211,-0.16903 3.677734,-1.70898 0.954046,-1.55572 0.636143,-3.83156 0.324219,-4.42578 v -0.002 l 3.027344,-4.64257 V 25.416016 l -3.021484,-4.431641 v -0.002 c 0.310045,-0.610892 0.618156,-2.869778 -0.330079,-4.416016 -1.079764,-1.598024 -2.452405,-1.953909 -3.828124,-1.679687 z M 17.515488,13.568369 c 0.04616,0.06824 0.558247,0.331745 0.623047,0.365235 0.07132,0.03679 0.134363,0.09733 0.158203,0.154297 0.05782,0.138362 0.15371,0.249142 0.25,0.289062 0.05575,0.02313 0.103542,0.07892 0.138672,0.164063 0.02939,0.07121 0.114053,0.190621 0.189453,0.263672 0.07537,0.07304 0.193439,0.233732 0.261719,0.357421 0.06828,0.123699 0.152933,0.240366 0.189453,0.259766 0.08651,0.04589 0.146407,0.12954 0.210937,0.298828 0.0288,0.07561 0.09864,0.180199 0.154297,0.230469 0.09077,0.082 0.150729,0.200335 0.296875,0.585937 0.02078,0.05483 0.07565,0.131955 0.123047,0.171875 0.06137,0.05164 0.112934,0.152976 0.177734,0.34961 0.105036,0.318703 0.138342,0.38745 0.232422,0.492187 0.06782,0.07551 0.138828,0.26872 0.257813,0.691407 0.03391,0.120419 0.09529,0.257457 0.134765,0.304687 0.03949,0.04722 0.09409,0.167498 0.123047,0.267578 0.06691,0.231333 0.142388,0.377553 0.242188,0.470703 0.03898,0.03639 0.06001,0.05471 0.07813,0.05664 0.0034,-1.8e-5 0.01024,-7.62e-4 0.01367,-0.002 0.01285,-0.0056 0.03085,-0.01924 0.05273,-0.03906 0.09383,-0.08492 0.193351,-0.273582 0.269531,-0.507812 0.03441,-0.10591 0.07537,-0.200917 0.09375,-0.220703 l 0.002,-0.002 v -0.002 h 0.002 0.002 c 0.05133,-0.04518 0.171492,-0.338833 0.240234,-0.59375 0.03919,-0.145207 0.108002,-0.308457 0.169922,-0.398437 0.05747,-0.08354 0.147209,-0.282593 0.199219,-0.44336 0.05604,-0.173114 0.129767,-0.331801 0.179687,-0.388671 0.04636,-0.05279 0.141671,-0.226349 0.212891,-0.384766 0.07119,-0.158418 0.174979,-0.335391 0.230469,-0.394531 0.05549,-0.05912 0.12273,-0.1748 0.15039,-0.25586 0.03086,-0.09058 0.09626,-0.189722 0.169922,-0.257812 0.06596,-0.06098 0.176311,-0.209723 0.244141,-0.332031 0.06847,-0.123385 0.176437,-0.26548 0.242187,-0.31836 0.0652,-0.0524 0.14941,-0.160144 0.1875,-0.240234 0.03988,-0.0839 0.114732,-0.175907 0.175781,-0.216797 0.05825,-0.03902 0.146996,-0.135794 0.197266,-0.214844 0.0503,-0.07899 0.115121,-0.152309 0.144531,-0.162109 0.08505,-0.02809 0.233805,-0.164186 0.283203,-0.259766 0.02494,-0.04819 0.09043,-0.107639 0.144532,-0.130859 0.0096,-0.0041 0.01791,-0.0089 0.02734,-0.01367 l 1.701171,2.410156 c -1.649201,1.063143 -3.010213,2.55342 -3.460937,3.140625 -1.013382,1.320239 -1.502219,2.419428 -0.398438,2.492188 4.224614,-6.768354 6.222782,-2.188711 5.740235,-1.837891 -0.482546,0.350821 -2.95242,1.015395 -1.736328,2.673828 0.943711,1.286977 2.888365,0.723751 4.396484,-0.03516 l 2.125,3.009766 V 145.41602 l -2.146484,3.2207 c -1.504967,-0.75327 -3.435889,-1.30418 -4.375,-0.0234 -1.216092,1.65844 1.253782,2.32301 1.736328,2.67383 0.482547,0.35082 -1.515621,4.93046 -5.740235,-1.83789 -1.103781,0.0728 -0.614944,1.17195 0.398438,2.49219 0.46492,0.60569 1.897953,2.17265 3.617187,3.24023 l -1.65039,2.47656 c -0.06699,-0.0806 -0.148251,-0.14267 -0.234375,-0.17968 -0.0541,-0.0232 -0.119587,-0.0827 -0.144532,-0.13086 -0.0494,-0.0956 -0.198153,-0.23168 -0.283203,-0.25977 -0.02941,-0.01 -0.09424,-0.0832 -0.144531,-0.16211 -0.05027,-0.079 -0.139012,-0.17583 -0.197266,-0.21484 -0.06105,-0.0409 -0.135904,-0.1329 -0.175781,-0.2168 -0.03809,-0.0801 -0.122298,-0.18783 -0.1875,-0.24023 -0.06575,-0.0529 -0.173714,-0.19498 -0.242187,-0.31836 -0.06783,-0.12231 -0.178181,-0.27105 -0.244141,-0.33203 -0.07366,-0.0681 -0.139065,-0.16919 -0.169922,-0.25977 -0.02766,-0.0811 -0.0949,-0.1948 -0.15039,-0.25391 -0.05549,-0.0591 -0.159275,-0.23806 -0.230469,-0.39648 -0.07122,-0.15842 -0.166534,-0.33002 -0.212891,-0.38281 -0.04992,-0.0569 -0.123644,-0.21555 -0.179687,-0.38867 -0.05201,-0.16078 -0.141748,-0.35981 -0.199219,-0.44336 -0.06192,-0.09 -0.130733,-0.25324 -0.169922,-0.39844 -0.06874,-0.25492 -0.188906,-0.54857 -0.240234,-0.59375 h -0.002 -0.002 v -0.002 l -0.002,-0.002 c -0.01838,-0.0198 -0.05934,-0.11479 -0.09375,-0.2207 -0.07618,-0.23423 -0.175698,-0.42289 -0.269531,-0.50781 -0.02188,-0.0198 -0.03989,-0.0335 -0.05273,-0.0391 -0.0034,-0.001 -0.0103,-0.002 -0.01367,-0.002 -0.01812,0.002 -0.03913,0.0202 -0.07813,0.0566 -0.0998,0.0931 -0.175274,0.23936 -0.242188,0.4707 -0.02896,0.10008 -0.08356,0.22036 -0.123047,0.26758 -0.03948,0.0472 -0.100859,0.18427 -0.134765,0.30469 -0.118985,0.42268 -0.189993,0.6159 -0.257813,0.69141 -0.09408,0.10474 -0.127386,0.17348 -0.232422,0.49218 -0.0648,0.19664 -0.116359,0.29602 -0.177734,0.34766 -0.0474,0.0399 -0.102268,0.11901 -0.123047,0.17383 -0.146146,0.38561 -0.206103,0.50394 -0.296875,0.58594 -0.05566,0.0503 -0.125492,0.15485 -0.154297,0.23046 -0.06453,0.16929 -0.124429,0.25294 -0.210937,0.29883 -0.03652,0.0194 -0.121173,0.13607 -0.189453,0.25977 -0.06828,0.12369 -0.186349,0.28438 -0.261719,0.35742 -0.0754,0.073 -0.160065,0.19245 -0.189453,0.26367 -0.03513,0.0851 -0.08292,0.14092 -0.138672,0.16406 -0.09629,0.0399 -0.192182,0.15071 -0.25,0.28907 -0.02384,0.057 -0.08688,0.11751 -0.158203,0.15429 -0.0648,0.0335 -0.155009,0.11731 -0.201172,0.18555 -0.04618,0.0683 -0.145534,0.15908 -0.220703,0.20313 -0.06438,0.0378 -0.141615,0.10526 -0.1875,0.16015 L 15.869,155.18147 c 1.719242,-1.06758 3.152265,-2.63453 3.617187,-3.24023 1.013382,-1.32024 1.504172,-2.41939 0.400391,-2.49219 -4.224614,6.76836 -6.222782,2.18871 -5.740235,1.83789 0.482546,-0.35082 2.950467,-1.0154 1.734375,-2.67383 -0.93911,-1.2807 -2.868081,-0.72979 -4.373047,0.0234 l -2.148437,-3.2207 V 25.416016 l 2.125,-3.009766 c 1.508119,0.758902 3.452773,1.322128 4.396484,0.03516 1.216092,-1.658433 -1.251829,-2.323007 -1.734375,-2.673828 -0.482547,-0.35082 1.515621,-4.930463 5.740235,1.837891 1.103781,-0.07276 0.612991,-1.171949 -0.400391,-2.492188 C 19.035464,18.52608 17.67445,17.035803 16.02525,15.97266 l 1.589843,-2.476562 m 3.744282,-5.0800474 2.857422,4.0488284 c -0.09118,0.0367 -0.210169,0.07624 -0.316406,0.105468 -0.254808,0.07006 -0.320077,0.102482 -0.421875,0.203126 -0.06629,0.06554 -0.184882,0.151486 -0.263672,0.191406 -0.07874,0.0399 -0.177653,0.116905 -0.220703,0.171875 -0.03141,0.04018 -0.05425,0.06608 -0.07031,0.07617 -0.0011,5.75e-4 -0.0028,0.0015 -0.0039,0.002 -0.0021,5.95e-4 -0.0077,0.0019 -0.0098,0.002 h -0.002 v -0.002 c -0.0012,-4.52e-4 -0.0034,1.5e-4 -0.0039,0 -0.01023,-0.0033 -0.02306,-0.01329 -0.03711,-0.02734 -0.07909,-0.07892 -0.110533,-0.280414 -0.07617,-0.492188 0.08519,-0.524858 6.79e-4,-1.194235 -0.177735,-1.40039 -0.04696,-0.05426 -0.124745,-0.202392 -0.171875,-0.328125 -0.06134,-0.163575 -0.119791,-0.260217 -0.207031,-0.341797 -0.06705,-0.0627 -0.147081,-0.165456 -0.175781,-0.228516 -0.06616,-0.145199 -0.386004,-0.5382837 -0.560547,-0.6874996 -0.1333,-0.1139577 -0.13233,-0.1139577 -0.271485,0 -0.190535,0.1560435 -0.471807,0.5088296 -0.554687,0.6953126 -0.03822,0.08598 -0.115388,0.189765 -0.173828,0.234375 -0.08097,0.06177 -0.126978,0.141915 -0.205078,0.349609 -0.0556,0.147868 -0.133075,0.310098 -0.171875,0.361328 -0.169639,0.224047 -0.179688,0.278995 -0.179688,1.044922 0,0.710585 0.0014,0.711431 -0.07031,0.769531 -0.02904,0.02353 -0.04804,0.03794 -0.0625,0.04102 -0.0022,2.16e-4 -0.0077,3.09e-4 -0.0098,0 -0.001,-2.87e-4 -0.0048,-0.0015 -0.0059,-0.002 -0.01366,-0.0072 -0.03187,-0.02712 -0.05664,-0.05859 -0.0337,-0.04285 -0.130437,-0.117305 -0.216797,-0.166015 -0.08638,-0.04876 -0.205492,-0.139209 -0.263672,-0.199219 -0.08445,-0.08713 -0.166489,-0.127985 -0.410156,-0.203125 -0.115225,-0.03553 -0.243822,-0.08178 -0.382427,-0.125647 z M 23.478732,158.28137 c 0.101798,0.10064 0.167067,0.13307 0.421875,0.20313 0.16595,0.0457 0.363279,0.11861 0.4375,0.1621 0.04779,0.028 0.09779,0.0504 0.154297,0.0703 l -3.132813,4.69922 -3.134766,-4.70313 c 0.08341,-0.0205 0.144727,-0.0427 0.185547,-0.0664 0.07115,-0.0412 0.267744,-0.11621 0.435547,-0.16796 0.243667,-0.0751 0.325707,-0.116 0.410156,-0.20313 0.05818,-0.06 0.177292,-0.15046 0.263672,-0.19922 0.08636,-0.0487 0.183095,-0.12316 0.216797,-0.16601 0.02477,-0.0315 0.04298,-0.0514 0.05664,-0.0586 l 0.002,-0.002 h 0.002 0.002 c 0.0021,-3.1e-4 0.0076,-2.2e-4 0.0098,0 0.01446,0.003 0.03346,0.0175 0.0625,0.041 0.07174,0.0581 0.07031,0.059 0.07031,0.76954 0,0.76592 0.01005,0.82087 0.179688,1.04492 0.0388,0.0512 0.116273,0.21346 0.171875,0.36133 0.0781,0.20769 0.124108,0.28785 0.205078,0.34961 0.05844,0.0446 0.135604,0.14839 0.173828,0.23437 0.08288,0.18648 0.364153,0.53732 0.554687,0.69336 0.139155,0.11396 0.138185,0.11396 0.271485,0 0.174543,-0.14921 0.494388,-0.54035 0.560547,-0.68555 0.0287,-0.0631 0.108726,-0.16581 0.175781,-0.22851 0.08724,-0.0816 0.14569,-0.17823 0.207031,-0.3418 0.04713,-0.12574 0.124913,-0.27386 0.171875,-0.32812 0.178414,-0.20615 0.239672,-0.87229 0.177735,-1.40039 0.173081,-0.65688 0.165447,-0.46494 0.687328,-0.0781 z"
       sodipodi:nodetypes="cccccccccccccccccccccccccccscccsccscccsccccccccccccccccccccsccccccscssccccsscsccccccssccssssccscccccccscccsssssssscsscscscscccscssccccsscscccccsscccccccccscscscccscssccccccsccscscccccscsccccccssssssscsssss" /></g></svg>
