<?xml version="1.0" encoding="UTF-8" standalone="no"?>
<!-- Created with Inkscape (http://www.inkscape.org/) -->

<svg
   version="1.1"
   id="svg1"
   width="364"
   height="65.333336"
   viewBox="0 0 364 65.333336"
   sodipodi:docname="header.svg"
   inkscape:version="1.4 (86a8ad7, 2024-10-11)"
   xmlns:inkscape="http://www.inkscape.org/namespaces/inkscape"
   xmlns:sodipodi="http://sodipodi.sourceforge.net/DTD/sodipodi-0.dtd"
   xmlns="http://www.w3.org/2000/svg"
   xmlns:svg="http://www.w3.org/2000/svg">
  <defs
     id="defs1" />
  <sodipodi:namedview
     id="namedview1"
     pagecolor="#505050"
     bordercolor="#ffffff"
     borderopacity="1"
     inkscape:showpageshadow="0"
     inkscape:pageopacity="0"
     inkscape:pagecheckerboard="1"
     inkscape:deskcolor="#505050"
     inkscape:zoom="4.6874963"
     inkscape:cx="174.93347"
     inkscape:cy="3.0933358"
     inkscape:window-width="2560"
     inkscape:window-height="1351"
     inkscape:window-x="-9"
     inkscape:window-y="-9"
     inkscape:window-maximized="1"
     inkscape:current-layer="g1" />
  <g
     inkscape:groupmode="layer"
     inkscape:label="Image"
     id="g1">
    <path
       style="fill:#000000"
       d="m 29.333333,46.666668 c 0.972921,-3.392375 0.781041,-4 -1.263148,-4 -1.325683,0 -3.156081,-0.898572 -4.067552,-1.996827 -1.385907,-1.669916 -1.008404,-2.270205 2.305851,-3.666667 3.206932,-1.35124 3.764248,-2.178629 2.921006,-4.336506 -1.874061,-4.795772 -1.286723,-5.218806 2.437177,-1.755392 8.403319,7.81551 5.894407,7.51486 63.529573,7.61292 29.25793,0.04978 53.50793,0.4022 53.88889,0.783156 0.79224,0.79224 -47.90437,1.358351 -82.128824,0.95477 -20.833096,-0.245667 -23.551925,-0.01245 -28.341588,2.431049 -2.913842,1.486531 -6.038508,3.888694 -6.943702,5.338141 -2.437103,3.902423 -3.645883,3.196786 -2.337683,-1.364644 z M 328,49.30397 c 0,-0.749485 -2.64156,-3.037928 -5.87014,-5.08543 l -5.87013,-3.722731 -52.35003,-0.245842 c -28.79251,-0.135213 -52.65095,-0.54677 -53.01875,-0.91457 -0.61572,-0.615724 20.04357,-0.918341 83.29077,-1.220044 l 24.18172,-0.115352 5.5978,-4.486855 c 5.40199,-4.329906 5.58219,-4.376546 5.15161,-1.333333 -0.34098,2.409996 0.4562,3.54723 3.38111,4.823361 3.19553,1.394205 3.55374,1.99945 2.17007,3.666667 -0.91147,1.098255 -2.74187,1.996827 -4.06755,1.996827 -2.04419,0 -2.23607,0.607625 -1.26315,4 0.68827,2.399844 0.65104,4.000001 -0.0931,4.000001 C 328.55812,50.666669 328,50.053454 328,49.30397 Z M 12.396914,41.473418 c -1.020233,-1.633652 -0.977822,-2.875106 0.150956,-4.418802 1.437056,-1.965291 1.829003,-1.951344 4.634597,0.16492 l 3.064781,2.311769 -3.215738,2.107033 c -2.955128,1.936274 -3.330725,1.922909 -4.634596,-0.16492 z m 329.087286,-0.02628 -3.06478,-2.311769 3.21574,-2.107033 c 2.95513,-1.936275 3.33072,-1.922909 4.63459,0.16492 1.02024,1.633652 0.97782,2.875106 -0.15095,4.418802 -1.43706,1.965291 -1.82901,1.951343 -4.6346,-0.16492 z M 152.98154,39.666668 c -5.61756,-4.265809 -4.74978,-14.889476 1.48896,-18.228351 7.09058,-3.794763 17.0626,0.812529 20.0007,9.240764 1.81491,5.206239 0.23221,5.007048 -3.15526,-0.397107 -3.08224,-4.917225 -9.6924,-6.511453 -12.57867,-3.033707 -2.59851,3.131004 -0.67268,6.511035 3.27931,5.755563 2.70596,-0.517276 3.31675,-0.103346 3.31675,2.247734 0,1.584974 -0.72,3.601771 -1.6,4.481771 -2.08574,2.085742 -7.96533,2.049286 -10.75179,-0.06667 z m 41.95179,0.06667 c -0.88,-0.88 -1.6,-2.896797 -1.6,-4.481771 0,-2.35108 0.6108,-2.76501 3.31675,-2.247734 3.952,0.755472 5.87782,-2.624559 3.27932,-5.755563 -2.88627,-3.477746 -9.49643,-1.883518 -12.57868,3.033707 -3.38747,5.404155 -4.97016,5.603346 -3.15525,0.397107 4.94921,-14.197316 25.13786,-13.762262 25.13786,0.541707 0,7.798149 -9.49904,13.413501 -14.4,8.512547 z M 173.7069,39.018306 c 3.50546,-0.275569 8.90546,-0.272244 12,0.0074 3.09454,0.279632 0.22643,0.505097 -6.37357,0.501034 -6.6,-0.0041 -9.13189,-0.232854 -5.62643,-0.508422 z m 4.44463,-10.222596 c -0.48723,-1.941283 -3.04047,-5.914479 -5.67385,-8.829325 -4.66079,-5.158937 -4.28559,-6.717896 0.94331,-3.919473 2.03378,1.088446 2.57901,0.94368 2.57901,-0.684758 0,-1.135752 0.71647,-3.212256 1.59216,-4.614454 1.47587,-2.3632541 1.71622,-2.3862775 3.29093,-0.315242 0.93432,1.228815 1.71785,3.305319 1.74117,4.614454 0.0345,1.937282 0.52236,2.123382 2.62142,1 5.05333,-2.704463 5.87921,-1.313157 1.75295,2.953089 -2.30514,2.383333 -5.03942,6.356529 -6.07619,8.829325 l -1.88504,4.495991 z"
       id="path1" />
  </g>
</svg>
