<?xml version="1.0" encoding="UTF-8" standalone="no"?>
<!-- Created with Inkscape (http://www.inkscape.org/) -->

<svg
   version="1.1"
   id="svg1"
   width="13.41333"
   height="11.999997"
   viewBox="0 0 13.413329 11.999997"
   sodipodi:docname="pattern_palms.svg"
   inkscape:version="1.4.3 (0d15f75042, 2025-12-25)"
   xmlns:inkscape="http://www.inkscape.org/namespaces/inkscape"
   xmlns:sodipodi="http://sodipodi.sourceforge.net/DTD/sodipodi-0.dtd"
   xmlns="http://www.w3.org/2000/svg"
   xmlns:svg="http://www.w3.org/2000/svg">
  <defs
     id="defs1">
    <clipPath
       clipPathUnits="userSpaceOnUse"
       id="clipPath4">
      <path
         d="M 0,900 H 1006 V 0 H 0 Z"
         id="path4" />
    </clipPath>
    <pattern
       patternTransform="translate(0,80.4)"
       patternUnits="userSpaceOnUse"
       x="0"
       y="0"
       width="100.591"
       height="89.9463"
       id="pattern20"
       inkscape:label="pattern20">
      <path
         d="M 870.359,115.918 C 788.414,179.902 772.418,251.836 772.418,251.836 718.461,93.9453 878.355,33.9844 878.355,33.9844 756.441,75.9375 762.434,-24.0039 762.434,-24.0039 c 0,0 167.886,49.9805 167.886,-145.8981 0,-195.879 -161.882,-265.84 -161.882,-265.84 165.898,14.004 193.871,197.89 195.878,265.84 1.993,67.968 -11.992,221.8551 -93.957,285.82"
         style="fill:#c5864d;fill-opacity:1;fill-rule:nonzero;stroke:none"
         transform="scale(0.1)"
         clip-path="url(#clipPath4)"
         id="path5" />
      <path
         d="m 1031.52,-1.99219 c 31.97,241.85519 147.91,233.82819 147.91,233.82819 -79.96,43.965 -139.92,-9.981 -139.92,-9.981 0,0 2.01,13.985 27.99,87.95 25.97,73.925 -61.59,139.922 -61.59,139.922 0,0 -87.566,-65.997 -61.586,-139.922 25.985,-73.965 27.977,-87.95 27.977,-87.95 0,0 -59.961,53.946 -139.918,9.981 0,0 115.941,8.027 147.914,-233.82819 C 1012.29,-243.848 950.313,-335.801 948.324,-387.773 c -2.011,-51.954 57.586,-61.954 57.586,-61.954 0,0 59.59,10 57.58,61.954 -1.99,51.972 -63.955,143.925 -31.97,385.78081"
         style="fill:#c5864d;fill-opacity:1;fill-rule:nonzero;stroke:none"
         transform="scale(0.1)"
         clip-path="url(#clipPath4)"
         id="path6" />
      <path
         d="m 75.5703,-169.902 c 0,195.8786 167.9097,145.8981 167.9097,145.8981 0,0 5.989,99.9414 -115.937,57.9883 0,0 159.902,59.9609 105.937,217.8516 0,0 -15.976,-71.934 -97.949,-135.918 -81.9412,-63.9649 -95.9255,-217.852 -93.9451,-285.82 2.0118,-67.95 29.9922,-251.836 195.8911,-265.84 0,0 -161.9067,69.961 -161.9067,265.84"
         style="fill:#c5864d;fill-opacity:1;fill-rule:nonzero;stroke:none"
         transform="scale(0.1)"
         clip-path="url(#clipPath4)"
         id="path7" />
      <path
         d="M 25.6094,-1.99219 C 57.582,239.863 173.52,231.836 173.52,231.836 93.5586,275.801 33.5977,221.855 33.5977,221.855 c 0,0 2.0117,13.985 27.9882,87.95 C 87.5625,383.73 0,449.727 0,449.727 c 0,0 -87.5625,-65.997 -61.582,-139.922 25.9804,-73.965 27.9726,-87.95 27.9726,-87.95 0,0 -59.9609,53.946 -139.9136,9.981 0,0 115.941,8.027 147.9136,-233.82819 C 6.375,-243.848 -55.5938,-335.801 -57.582,-387.773 -59.5938,-439.727 0,-449.727 0,-449.727 c 0,0 59.5938,10 57.582,61.954 -1.9922,51.972 -63.95309,143.925 -31.9726,385.78081"
         style="fill:#c5864d;fill-opacity:1;fill-rule:nonzero;stroke:none"
         transform="scale(0.1)"
         clip-path="url(#clipPath4)"
         id="path8" />
      <path
         d="m 892.344,693.574 c 0,73.965 -41.957,133.926 -87.934,135.899 -45.976,1.992 -49.976,-33.965 -49.976,-43.965 0,-9.981 6.004,-43.985 39.984,-43.985 33.98,0 35.973,22.032 35.973,22.032 0,0 29.98,3.984 29.98,-68.008 0,-94.024 -97.937,-193.867 -97.937,-193.867 73.961,29.98 129.91,117.91 129.91,191.894"
         style="fill:#c5864d;fill-opacity:1;fill-rule:nonzero;stroke:none"
         transform="scale(0.1)"
         id="path9" />
      <path
         d="m 870.359,1015.37 c -81.945,63.99 -97.941,135.92 -97.941,135.92 C 718.461,993.398 878.355,933.438 878.355,933.438 756.441,975.391 762.434,875.449 762.434,875.449 c 0,0 167.886,49.981 167.886,-145.898 0,-195.879 -161.882,-265.84 -161.882,-265.84 165.898,14.004 193.871,197.891 195.878,265.84 1.993,67.969 -11.992,221.855 -93.957,285.819"
         style="fill:#c5864d;fill-opacity:1;fill-rule:nonzero;stroke:none"
         transform="scale(0.1)"
         clip-path="url(#clipPath4)"
         id="path10" />
      <path
         d="m 1031.52,897.461 c 31.97,241.859 147.91,233.829 147.91,233.829 -79.96,43.96 -139.92,-9.98 -139.92,-9.98 0,0 2.01,13.98 27.99,87.95 25.97,73.93 -61.59,139.92 -61.59,139.92 0,0 -87.566,-65.99 -61.586,-139.92 25.985,-73.97 27.977,-87.95 27.977,-87.95 0,0 -59.961,53.94 -139.918,9.98 0,0 115.941,8.03 147.914,-233.829 31.993,-241.856 -29.984,-333.809 -31.973,-385.781 -2.011,-51.953 57.586,-61.953 57.586,-61.953 0,0 59.59,10 57.58,61.953 -1.99,51.972 -63.955,143.925 -31.97,385.781"
         style="fill:#c5864d;fill-opacity:1;fill-rule:nonzero;stroke:none"
         transform="scale(0.1)"
         clip-path="url(#clipPath4)"
         id="path11" />
      <path
         d="m 389.391,243.848 c 0,73.965 -41.957,133.925 -87.938,135.898 -45.973,1.992 -49.973,-33.965 -49.973,-43.965 0,-9.98 6.004,-43.984 39.985,-43.984 33.98,0 35.973,22.031 35.973,22.031 0,0 29.98,3.985 29.98,-68.008 0,-94.023 -97.941,-193.8669 -97.941,-193.8669 73.964,29.9805 129.914,117.9099 129.914,191.8949"
         style="fill:#c5864d;fill-opacity:1;fill-rule:nonzero;stroke:none"
         transform="scale(0.1)"
         id="path12" />
      <path
         d="M 367.406,565.645 C 285.461,629.629 269.465,701.563 269.465,701.563 215.508,543.672 375.398,483.711 375.398,483.711 253.484,525.664 259.477,425.723 259.477,425.723 c 0,0 167.89,49.98 167.89,-145.899 0,-195.8787 -161.883,-265.8396 -161.883,-265.8396 165.899,14.0039 193.871,197.8906 195.879,265.8396 1.992,67.969 -11.992,221.856 -93.957,285.821"
         style="fill:#c5864d;fill-opacity:1;fill-rule:nonzero;stroke:none"
         transform="scale(0.1)"
         id="path13" />
      <path
         d="m 678.477,313.828 c 0,0 1.992,-22.031 35.964,-22.031 33.989,0 39.993,34.004 39.993,43.984 0,10 -3.996,45.957 -49.969,43.965 -45.981,-1.973 -87.961,-61.933 -87.961,-135.898 0,-73.985 55.969,-161.9144 129.934,-191.8949 0,0 -97.942,99.8439 -97.942,193.8669 0,71.993 29.981,68.008 29.981,68.008"
         style="fill:#c5864d;fill-opacity:1;fill-rule:nonzero;stroke:none"
         transform="scale(0.1)"
         id="path14" />
      <path
         d="m 578.523,279.824 c 0,195.879 167.915,145.899 167.915,145.899 0,0 5.984,99.941 -115.942,57.988 0,0 159.902,59.961 105.942,217.852 0,0 -15.977,-71.934 -97.954,-135.918 C 556.543,501.68 542.559,347.793 544.543,279.824 546.555,211.875 574.531,27.9883 740.43,13.9844 c 0,0 -161.907,69.9609 -161.907,265.8396"
         style="fill:#c5864d;fill-opacity:1;fill-rule:nonzero;stroke:none"
         transform="scale(0.1)"
         id="path15" />
      <path
         d="m 528.563,447.734 c 31.972,241.856 147.914,233.829 147.914,233.829 -79.961,43.964 -139.922,-9.981 -139.922,-9.981 0,0 2.008,13.984 27.988,87.949 25.977,73.938 -61.59,139.922 -61.59,139.922 0,0 -87.562,-65.984 -61.582,-139.922 25.984,-73.965 27.977,-87.949 27.977,-87.949 0,0 -59.961,53.945 -139.918,9.981 0,0 115.941,8.027 147.914,-233.829 C 509.332,205.879 447.359,113.926 445.371,61.9531 443.359,10 502.953,0 502.953,0 c 0,0 59.598,10 57.582,61.9531 -1.988,51.9729 -63.953,143.9259 -31.972,385.7809"
         style="fill:#c5864d;fill-opacity:1;fill-rule:nonzero;stroke:none"
         transform="scale(0.1)"
         id="path16" />
      <path
         d="m 175.523,763.555 c 0,0 1.993,-22.032 35.965,-22.032 33.985,0 39.992,34.004 39.992,43.985 0,10 -3.996,45.957 -49.972,43.965 -45.977,-1.973 -87.957,-61.934 -87.957,-135.899 0,-73.984 55.965,-161.914 129.929,-191.894 0,0 -97.937,99.843 -97.937,193.867 0,71.992 29.98,68.008 29.98,68.008"
         style="fill:#c5864d;fill-opacity:1;fill-rule:nonzero;stroke:none"
         transform="scale(0.1)"
         id="path17" />
      <path
         d="m 75.5703,729.551 c 0,195.879 167.9097,145.898 167.9097,145.898 0,0 5.989,99.942 -115.937,57.989 0,0 159.902,59.96 105.937,217.852 0,0 -15.976,-71.93 -97.949,-135.92 C 53.5898,951.406 39.6055,797.52 41.5859,729.551 43.5977,661.602 71.5781,477.715 237.477,463.711 c 0,0 -161.9067,69.961 -161.9067,265.84"
         style="fill:#c5864d;fill-opacity:1;fill-rule:nonzero;stroke:none"
         transform="scale(0.1)"
         clip-path="url(#clipPath4)"
         id="path18" />
      <path
         d="M 25.6094,897.461 C 57.582,1139.32 173.52,1131.29 173.52,1131.29 c -79.9614,43.96 -139.9223,-9.98 -139.9223,-9.98 0,0 2.0117,13.98 27.9882,87.95 C 87.5625,1283.19 0,1349.18 0,1349.18 c 0,0 -87.5625,-65.99 -61.582,-139.92 25.9804,-73.97 27.9726,-87.95 27.9726,-87.95 0,0 -59.9609,53.94 -139.9136,9.98 0,0 115.941,8.03 147.9136,-233.829 C 6.375,655.605 -55.5938,563.652 -57.582,511.68 -59.5938,459.727 0,449.727 0,449.727 c 0,0 59.5938,10 57.582,61.953 -1.9922,51.972 -63.95309,143.925 -31.9726,385.781"
         style="fill:#c5864d;fill-opacity:1;fill-rule:nonzero;stroke:none"
         transform="scale(0.1)"
         clip-path="url(#clipPath4)"
         id="path19" />
      <path
         d="m 528.563,1347.19 c 31.972,241.85 147.914,233.83 147.914,233.83 -79.961,43.96 -139.922,-9.98 -139.922,-9.98 0,0 2.008,13.98 27.988,87.94 25.977,73.94 -61.59,139.93 -61.59,139.93 0,0 -87.562,-65.99 -61.582,-139.93 25.984,-73.96 27.977,-87.94 27.977,-87.94 0,0 -59.961,53.94 -139.918,9.98 0,0 115.941,8.02 147.914,-233.83 31.988,-241.86 -29.985,-333.81 -31.973,-385.784 -2.012,-51.953 57.582,-61.953 57.582,-61.953 0,0 59.598,10 57.582,61.953 -1.988,51.974 -63.953,143.924 -31.972,385.784"
         style="fill:#c5864d;fill-opacity:1;fill-rule:nonzero;stroke:none"
         transform="scale(0.1)"
         clip-path="url(#clipPath4)"
         id="path20" />
    </pattern>
  </defs>
  <sodipodi:namedview
     id="namedview1"
     pagecolor="#ffffff"
     bordercolor="#000000"
     borderopacity="0.25"
     inkscape:showpageshadow="2"
     inkscape:pageopacity="0.0"
     inkscape:pagecheckerboard="0"
     inkscape:deskcolor="#d1d1d1"
     inkscape:zoom="32"
     inkscape:cx="4.046875"
     inkscape:cy="13.109375"
     inkscape:window-width="2560"
     inkscape:window-height="1440"
     inkscape:window-x="0"
     inkscape:window-y="0"
     inkscape:window-maximized="1"
     inkscape:current-layer="svg1">
    <inkscape:page
       x="0"
       y="0"
       inkscape:label="1"
       id="page1"
       width="13.413329"
       height="11.999997"
       margin="0"
       bleed="0" />
  </sodipodi:namedview>
  <path
     id="path40"
     clip-path="url(#clipPath4)"
     style="fill:#000000;fill-opacity:1;fill-rule:nonzero;stroke:none"
     d="M 502.88099 1798.9749 C 502.88099 1798.9749 415.37753 1732.8758 441.35753 1658.9358 C 467.34153 1584.9758 469.33605 1571.0452 469.33605 1571.0452 C 469.33605 1571.0452 409.40044 1624.9661 329.44344 1581.0061 C 329.44344 1581.0061 445.4197 1589.067 477.3927 1347.217 C 509.3807 1105.357 447.30061 1013.351 445.31261 961.37704 C 443.30061 909.42404 502.88099 899.41414 502.88099 899.41414 C 502.88099 899.41414 562.61184 909.42404 560.59584 961.37704 C 558.60784 1013.351 496.53476 1105.357 528.51576 1347.217 C 560.48776 1589.067 676.46501 1581.0061 676.46501 1581.0061 C 596.50401 1624.9661 536.5724 1571.0452 536.5724 1571.0452 C 536.5724 1571.0452 538.57092 1584.9758 564.55092 1658.9358 C 590.52792 1732.8758 502.88099 1798.9749 502.88099 1798.9749 z M 502.88099 899.41414 C 502.88099 899.41414 415.37753 833.45654 441.35753 759.52152 C 467.34154 685.55651 469.33605 671.63088 469.33605 671.63088 C 469.33605 671.63088 409.40046 725.55683 329.44344 681.59182 C 329.44344 681.59182 445.41969 689.65526 477.3927 447.8027 C 509.38071 205.95014 447.30061 113.93777 445.31261 61.962756 C 443.30059 10.010243 502.88099 -0.00015000004 502.88099 -0.00015000004 C 502.88099 -0.00015000004 562.61184 10.010243 560.59584 61.962756 C 558.60782 113.93777 496.53475 205.95014 528.51576 447.8027 C 560.48776 689.65526 676.46501 681.59182 676.46501 681.59182 C 596.504 725.55683 536.5724 671.63088 536.5724 671.63088 C 536.5724 671.63088 538.57089 685.55651 564.55092 759.52152 C 590.52793 833.45654 502.88099 899.41414 502.88099 899.41414 z M 0 1349.1213 C 0 1349.1213 -87.503953 1283.1587 -61.523453 1209.2287 C -35.543053 1135.2587 -33.54493 1121.338 -33.54493 1121.338 C -33.54493 1121.338 -93.631328 1175.259 -173.58403 1131.299 C -173.58403 1131.299 -57.607372 1139.3688 -25.634772 897.50984 C 6.349628 655.65384 -55.580174 563.6419 -57.568374 511.6699 C -59.579645 459.73057 -0.031335336 449.71226 0 449.70699 C 0 449.70699 59.580174 459.7169 57.568374 511.6699 C 55.576174 563.6419 -6.345718 655.65384 25.634772 897.50984 C 57.607372 1139.3688 173.58403 1131.299 173.58403 1131.299 C 93.622628 1175.259 33.54493 1121.338 33.54493 1121.338 C 33.54493 1121.338 35.546953 1135.2587 61.523453 1209.2287 C 87.500053 1283.1587 -2.2204466e-14 1349.1213 0 1349.1213 z M 0 449.70699 C 0 449.70699 -87.503953 383.73938 -61.523453 309.81438 C -35.543053 235.84938 -33.54493 221.92373 -33.54493 221.92373 C -33.54493 221.92373 -93.631328 275.84967 -173.58403 231.88467 C -173.58403 231.88467 -57.607372 239.80426 -25.634772 -2.0509318 C 6.349628 -243.90674 -55.580174 -335.77239 -57.568374 -387.74439 C -59.580174 -439.69839 5.5511165e-15 -449.70729 0 -449.70729 C 0 -449.70729 59.580174 -439.69839 57.568374 -387.74439 C 55.576174 -335.77239 -6.345718 -243.90674 25.634772 -2.0509318 C 57.607372 239.80426 173.58403 231.88467 173.58403 231.88467 C 93.622628 275.84967 33.54493 221.92373 33.54493 221.92373 C 33.54493 221.92373 35.546953 235.84938 61.523453 309.81438 C 87.494996 383.72499 0.034080257 449.6813 0 449.70699 z M 1005.9085 1349.1213 C 1005.9085 1349.1213 918.405 1283.1587 944.385 1209.2287 C 970.37 1135.2587 972.36352 1121.338 972.36352 1121.338 C 972.36352 1121.338 912.28143 1175.259 832.32443 1131.299 C 832.32443 1131.299 948.30068 1139.3688 980.27368 897.50984 C 1012.2667 655.65384 950.32908 563.6419 948.34008 511.6699 C 946.32961 459.73057 1005.8771 449.71226 1005.9085 449.70699 C 1005.9085 449.70699 1065.4868 459.7169 1063.4768 511.6699 C 1061.4868 563.6419 999.55823 655.65384 1031.5432 897.50984 C 1063.5132 1139.3688 1179.4925 1131.299 1179.4925 1131.299 C 1099.5325 1175.259 1039.4534 1121.338 1039.4534 1121.338 C 1039.4534 1121.338 1041.4519 1135.2587 1067.4319 1209.2287 C 1093.4019 1283.1587 1005.9085 1349.1213 1005.9085 1349.1213 z M 1005.9085 449.70699 C 1005.9085 449.70699 918.405 383.73938 944.385 309.81438 C 970.37 235.84938 972.36352 221.92373 972.36352 221.92373 C 972.36352 221.92373 912.28143 275.84967 832.32443 231.88467 C 832.32443 231.88467 948.30068 239.80426 980.27368 -2.0509318 C 1012.2667 -243.90674 950.32908 -335.77239 948.34008 -387.74439 C 946.32908 -439.69839 1005.9085 -449.70729 1005.9085 -449.70729 C 1005.9085 -449.70729 1065.4868 -439.69839 1063.4768 -387.74439 C 1061.4868 -335.77239 999.55823 -243.90674 1031.5432 -2.0509318 C 1063.5132 239.80426 1179.4925 231.88467 1179.4925 231.88467 C 1099.5325 275.84967 1039.4534 221.92373 1039.4534 221.92373 C 1039.4534 221.92373 1041.4519 235.84938 1067.4319 309.81438 C 1093.3969 383.72499 1005.9425 449.6813 1005.9085 449.70699 z M 233.49615 1151.2208 C 233.49615 1151.2208 217.47108 1079.4198 135.49808 1015.4298 C 53.556881 951.46579 39.621173 797.46122 41.601573 729.49222 C 43.613373 661.54322 71.552331 477.7735 237.45123 463.7695 C 237.45123 463.7695 75.585956 533.61322 75.585956 729.49222 C 75.585956 925.37122 243.45709 875.39069 243.45709 875.39069 C 243.45709 875.39069 249.51392 975.35152 127.58792 933.39852 C 127.58792 933.39852 287.46115 993.32884 233.49615 1151.2208 z M 772.4123 1151.2208 C 718.4553 993.32884 878.32053 933.39852 878.32053 933.39852 C 756.40653 975.35152 762.45136 875.39069 762.45136 875.39069 C 762.45136 875.39069 930.3225 925.37122 930.3225 729.49222 C 930.3225 533.61322 768.45722 463.7695 768.45722 463.7695 C 934.35522 477.7735 962.29988 661.54322 964.30688 729.49222 C 966.29988 797.46122 952.37537 951.46579 870.41037 1015.4298 C 788.46537 1079.4198 772.4123 1151.2208 772.4123 1151.2208 z M 201.56255 829.54107 C 155.58554 827.59107 113.52542 767.56856 113.52542 693.60354 C 113.52542 619.61602 169.49308 531.68647 243.45709 501.70896 C 243.45709 501.70896 145.60551 601.48031 145.60551 695.50784 C 145.60551 767.48343 175.47423 763.62496 175.48833 763.62309 C 175.48833 763.62309 177.55146 741.50394 211.52349 741.50394 C 245.5085 741.50394 251.51373 775.47426 251.51373 785.44927 C 251.51373 795.45427 247.53856 831.53607 201.56255 829.54107 z M 804.3459 829.54107 C 758.36992 831.56607 754.39472 795.45427 754.39472 785.44927 C 754.39472 775.47426 760.40471 741.50394 794.38496 741.50394 C 828.36492 741.50394 830.42013 763.62309 830.42013 763.62309 C 830.42013 763.62309 860.30295 767.48535 860.30295 695.50784 C 860.30295 601.48031 762.45136 501.70896 762.45136 501.70896 C 836.41241 531.68647 892.38304 619.61602 892.38304 693.60354 C 892.38304 767.56856 850.32294 827.56857 804.3459 829.54107 z M 269.53132 701.5137 C 215.5743 543.62366 375.43955 483.69138 375.43955 483.69138 C 253.52552 525.64639 259.42389 425.68355 259.42389 425.68355 C 259.42389 425.68355 427.29503 475.66263 427.29503 279.78508 C 427.29503 83.907505 265.42975 13.915869 265.42975 13.915869 C 431.32879 27.918373 459.4179 211.83506 461.4259 279.78508 C 463.4179 347.75009 449.34793 501.61615 367.3829 565.57616 C 285.43789 629.56618 269.53132 701.5137 269.53132 701.5137 z M 736.37714 701.5137 C 736.37714 701.5137 720.50257 629.56618 638.52555 565.57616 C 556.58453 501.61615 542.49855 347.75009 544.48256 279.78508 C 546.49458 211.83506 574.57966 27.918373 740.4787 13.915869 C 740.4787 13.915869 578.46694 83.907505 578.46694 279.78508 C 578.46694 475.66263 746.48456 425.68355 746.48456 425.68355 C 746.48456 425.68355 752.39496 525.64639 630.46891 483.69138 C 630.46891 483.69138 790.33717 543.62366 736.37714 701.5137 z M 293.26179 379.68744 C 254.94175 377.31157 251.51373 345.11478 251.51373 335.74212 C 251.51373 325.75962 257.52295 291.7968 291.50398 291.7968 C 325.48399 291.7968 327.39266 313.76946 327.39266 313.76946 C 327.39266 313.76946 357.42196 317.78571 357.42196 245.80069 C 357.42196 151.78067 259.42389 52.001816 259.42389 52.001816 C 333.38791 81.979324 389.35557 169.90888 389.35557 243.8964 C 389.35557 317.86141 347.44593 377.71494 301.46492 379.68744 C 298.59161 379.80932 295.81646 379.84584 293.26179 379.68744 z M 704.44354 379.68744 C 658.46252 377.73744 616.55289 317.86141 616.55289 243.8964 C 616.55289 169.90888 672.51954 81.979324 746.48456 52.001816 C 746.48456 52.001816 648.48649 151.78067 648.48649 245.80069 C 648.48649 317.79321 678.51579 313.76946 678.51579 313.76946 C 678.51579 313.76946 680.43247 291.7968 714.40448 291.7968 C 748.39348 291.7968 754.39472 325.75962 754.39472 335.74212 C 754.39472 345.73962 750.41657 381.67495 704.44354 379.68744 z M 233.49615 251.80655 C 233.49615 251.80655 217.47108 179.85302 135.49808 115.86902 C 53.556881 51.90412 39.621173 -101.95407 41.601573 -169.92207 C 43.613373 -237.87207 71.552331 -421.78727 237.45123 -435.79127 C 237.45123 -435.79127 75.585956 -365.80107 75.585956 -169.92207 C 75.585956 25.956533 243.45709 -24.023594 243.45709 -24.023594 C 243.45709 -24.023594 249.51392 75.937333 127.58792 33.984233 C 127.58792 33.984233 287.46115 93.915854 233.49615 251.80655 z M 772.4123 251.80655 C 718.4553 93.915854 878.32053 33.984233 878.32053 33.984233 C 756.40653 75.937333 762.45136 -24.023594 762.45136 -24.023594 C 762.45136 -24.023594 930.3225 25.956533 930.3225 -169.92207 C 930.3225 -365.80107 768.45722 -435.79127 768.45722 -435.79127 C 934.35522 -421.78727 962.29988 -237.87207 964.30688 -169.92207 C 966.29988 -101.95407 952.37537 51.90412 870.41037 115.86902 C 788.46537 179.85302 772.4123 251.80655 772.4123 251.80655 z "
     transform="matrix(0.01333333,0,0,-0.01333333,0,11.999998)" />
</svg>
