<?xml version="1.0" encoding="UTF-8" standalone="no"?>
<!-- Created with Inkscape (http://www.inkscape.org/) -->

<svg
   width="200mm"
   height="200mm"
   viewBox="0 0 200 200"
   version="1.1"
   id="svg1"
   inkscape:version="1.4.3 (0d15f75042, 2025-12-25)"
   sodipodi:docname="pattern_circle.svg"
   xmlns:inkscape="http://www.inkscape.org/namespaces/inkscape"
   xmlns:sodipodi="http://sodipodi.sourceforge.net/DTD/sodipodi-0.dtd"
   xmlns="http://www.w3.org/2000/svg"
   xmlns:svg="http://www.w3.org/2000/svg">
  <sodipodi:namedview
     id="namedview1"
     pagecolor="#ffffff"
     bordercolor="#000000"
     borderopacity="0.25"
     inkscape:showpageshadow="2"
     inkscape:pageopacity="0.0"
     inkscape:pagecheckerboard="0"
     inkscape:deskcolor="#d1d1d1"
     inkscape:document-units="mm"
     inkscape:zoom="0.5"
     inkscape:cx="-146"
     inkscape:cy="355"
     inkscape:window-width="2560"
     inkscape:window-height="1388"
     inkscape:window-x="0"
     inkscape:window-y="0"
     inkscape:window-maximized="1"
     inkscape:current-layer="layer1" />
  <defs
     id="defs1" />
  <g
     inkscape:label="Livello 1"
     inkscape:groupmode="layer"
     id="layer1">
    <path
       id="path229"
       style="opacity:1;fill:#000000;stroke-width:0.139031;fill-opacity:1"
       d="M 100.00113 0 A 70.711084 70.711085 0 0 1 100.00061 0.00051676432 L 100.00061 99.999064 A 70.711084 70.711085 0 0 1 100.00113 99.999581 A 70.711084 70.711085 0 0 0 100.00113 0 z M 0 0.00051676432 L 0 99.999064 A 70.711084 70.711085 0 0 1 0.1607137 99.838867 A 70.711084 70.711085 0 0 0 0.16123047 0.16174723 A 70.711084 70.711085 0 0 1 0 0.00051676432 z M 0.16123047 0.16174723 A 70.711084 70.711085 0 0 0 99.767037 0.23306071 A 70.711084 70.711085 0 0 1 99.998031 0.00051676432 L 0.0010335286 0.00051676432 A 70.711084 70.711085 0 0 1 0.16123047 0.16174723 z M 99.767037 0.23306071 A 70.711084 70.711085 0 0 0 99.76807 99.767554 A 70.711084 70.711085 0 0 0 0.1607137 99.838867 A 70.711084 70.711085 0 0 1 0.0010335286 99.999064 L 99.998547 99.999064 A 70.711084 70.711085 0 0 1 99.773755 99.773238 A 70.711084 70.711085 0 0 1 99.999581 99.998031 L 99.999581 0.001550293 A 70.711084 70.711085 0 0 1 99.767037 0.23306071 z M 100.00268 0.00051676432 A 70.711084 70.711085 0 0 0 199.63743 0.36380208 A 70.711084 70.711085 0 0 1 199.99865 0.00051676432 L 100.00268 0.00051676432 z M 199.63743 0.36380208 A 70.711084 70.711085 0 0 0 199.62709 99.62441 A 70.711084 70.711085 0 0 1 200.0002 99.993896 L 200.0002 0.0046508789 A 70.711084 70.711085 0 0 1 199.63743 0.36380208 z M 199.62709 99.62441 A 70.711084 70.711085 0 0 0 100.00423 99.999064 L 199.99916 99.999064 A 70.711084 70.711085 0 0 1 199.62709 99.62441 z M 26.521895 26.822135 A 33.283774 33.283775 0 0 1 26.521895 73.740202 A 33.283774 33.283775 0 0 1 73.406889 73.706612 A 33.283774 33.283775 0 0 1 73.406372 26.855208 A 33.283774 33.283775 0 0 1 26.521895 26.822135 z M 0 100.0001 A 70.711084 70.711085 0 0 1 0.065112305 100.06469 A 70.711084 70.711085 0 0 0 100.0001 100.00061 A 70.711084 70.711085 0 0 1 99.999581 100.0001 L 0 100.0001 z M 0 100.0001 L 0 199.99916 A 70.711084 70.711085 0 0 0 0 100.0001 z M 100.00423 100.0001 L 100.00423 100.0032 A 70.711084 70.711085 0 0 1 100.2068 100.20629 A 70.711084 70.711085 0 0 1 100.00423 100.00475 L 100.00423 199.98676 A 70.711084 70.711085 0 0 1 100.00837 199.99089 A 70.711084 70.711085 0 0 1 100.09725 199.90201 A 70.711084 70.711085 0 0 0 100.2559 100.25538 A 70.711084 70.711085 0 0 0 199.78936 100.21042 A 70.711084 70.711085 0 0 0 199.59143 199.58782 A 70.711084 70.711085 0 0 1 200.0002 199.99244 L 200.0002 100.0001 A 70.711084 70.711085 0 0 1 199.81778 100.18148 A 70.711084 70.711085 0 0 1 199.99916 100.0001 L 100.00423 100.0001 z M 199.59143 199.58782 A 70.711084 70.711085 0 0 0 100.00837 199.99089 A 70.711084 70.711085 0 0 1 100.01353 199.99709 L 199.99709 199.99709 A 70.711084 70.711085 0 0 1 199.59143 199.58782 z M 100.00061 100.00268 A 70.711084 70.711085 0 0 0 99.449227 199.43796 A 70.711084 70.711085 0 0 1 100.00061 199.98314 L 100.00061 100.00268 z M 99.449227 199.43796 A 70.711084 70.711085 0 0 0 0.012919108 199.99709 L 100.00061 199.99709 L 100.00061 199.99554 A 70.711084 70.711085 0 0 1 99.449227 199.43796 z M 125.74065 127.62787 L 125.74065 127.62839 A 33.283774 33.283775 0 0 1 125.74065 174.54645 A 33.283774 33.283775 0 0 1 172.62564 174.51286 A 33.283774 33.283775 0 0 1 172.62512 127.66146 A 33.283774 33.283775 0 0 1 125.74065 127.62787 z " />
  </g>
</svg>
