<?xml version="1.0" encoding="UTF-8" standalone="no"?>
<!-- Created with Inkscape (http://www.inkscape.org/) -->

<svg
   version="1.1"
   id="svg1"
   width="380"
   height="359"
   viewBox="0 0 380 359"
   sodipodi:docname="pike.svg"
   inkscape:version="1.4 (86a8ad7, 2024-10-11)"
   xmlns:inkscape="http://www.inkscape.org/namespaces/inkscape"
   xmlns:sodipodi="http://sodipodi.sourceforge.net/DTD/sodipodi-0.dtd"
   xmlns="http://www.w3.org/2000/svg"
   xmlns:svg="http://www.w3.org/2000/svg">
  <defs
     id="defs1" />
  <sodipodi:namedview
     id="namedview1"
     pagecolor="#505050"
     bordercolor="#ffffff"
     borderopacity="1"
     inkscape:showpageshadow="0"
     inkscape:pageopacity="0"
     inkscape:pagecheckerboard="1"
     inkscape:deskcolor="#505050"
     inkscape:zoom="3.1559889"
     inkscape:cx="205.32392"
     inkscape:cy="160.17167"
     inkscape:window-width="2560"
     inkscape:window-height="1351"
     inkscape:window-x="-9"
     inkscape:window-y="-9"
     inkscape:window-maximized="1"
     inkscape:current-layer="g1" />
  <g
     inkscape:groupmode="layer"
     inkscape:label="Image"
     id="g1">
    <path
       style="fill:#000000"
       d="m 126.13415,333.44342 c -3.81334,-4.84788 -5.42883,-11.91253 -4.75837,-20.80868 1.42771,-18.94383 3.39253,-30.56274 5.9002,-34.89057 1.35255,-2.33429 3.84827,-8.74853 5.54605,-14.25385 2.46537,-7.99437 3.80749,-10.70815 6.66609,-13.4788 1.96857,-1.90801 4.88783,-5.78786 6.48726,-8.62189 1.59942,-2.83402 4.05823,-6.0575 5.464,-7.16329 2.54192,-1.99947 2.54547,-2.02348 0.64614,-4.36843 -1.90771,-2.3553 -1.93564,-2.35791 -25.24767,-2.35791 -25.12916,0 -26.933599,-0.30915 -34.284023,-5.87377 -1.679605,-1.27155 -7.023152,-3.80437 -11.874549,-5.62851 -6.814057,-2.5621 -9.417416,-4.09891 -11.443618,-6.7554 -1.463334,-1.91853 -4.858282,-4.43264 -7.679278,-5.68685 -6.118055,-2.72007 -17.675695,-11.94695 -22.795223,-18.19825 -3.738842,-4.56538 -3.738842,-4.56538 0,-8.93888 4.895382,-5.72636 17.734897,-16.22326 22.498495,-18.39357 2.06781,-0.9421 5.44281,-3.51295 7.5,-5.713 2.676383,-2.86225 5.873765,-4.80011 11.240346,-6.81255 4.125,-1.54685 8.956592,-4.07304 10.73687,-5.61375 6.763782,-5.85363 28.7497,-8.65778 45.96958,-5.86309 6.94819,1.12765 13.58988,0.10986 16.17905,-2.47931 1.47591,-1.47591 1.33957,-1.81618 -1.67223,-4.17326 -1.80354,-1.41149 -4.35032,-4.68016 -5.65951,-7.26372 -1.30919,-2.58356 -4.13974,-6.47684 -6.29011,-8.65173 -3.30186,-3.33952 -4.33301,-5.4935 -6.63192,-13.853445 -1.49719,-5.444497 -3.8898,-11.891504 -5.31691,-14.326682 -3.87331,-6.609314 -5.24027,-14.908999 -5.27969,-32.056352 -0.0373,-16.2215 0.75296,-20.079264 4.9057,-23.948124 2.16122,-2.013488 2.16122,-2.013488 9.84638,2.108377 8.01495,4.298745 11.86722,8.612275 16.30125,18.253092 1.04503,2.272174 3.00745,4.856819 4.36093,5.743656 3.72427,2.440238 6.63236,5.768127 8.1716,9.351212 0.76223,1.774352 2.68073,3.89569 4.26333,4.714083 3.13597,1.621676 7.63563,6.514167 8.55734,9.304427 0.31893,0.965468 2.70107,3.105396 5.29366,4.755396 2.59258,1.65 5.76103,4.563622 7.04101,6.474716 1.34107,2.002321 4.35142,4.436775 7.10413,5.745086 2.6273,1.248703 6.18346,4.020633 7.90258,6.159845 1.73436,2.158173 6.37314,5.691473 10.42131,7.937773 4.01261,2.22656 8.93252,5.81895 10.93315,7.9831 2.23509,2.41778 5.50208,4.57014 8.47375,5.58269 2.65994,0.90633 6.42307,3.13739 8.3625,4.95791 1.93944,1.82051 7.77878,5.22095 12.97633,7.55653 5.19754,2.33558 10.86732,5.49086 12.59951,7.01174 1.86541,1.63786 7.05909,4.03082 12.73901,5.86944 5.27426,1.70731 11.83215,4.64682 14.57307,6.53225 2.95188,2.03053 8.26238,4.31278 13.02643,5.59826 8.63331,2.32952 18.54871,6.37038 19.53082,7.95947 0.33154,0.53645 3.63542,1.96148 7.34194,3.16675 7.68478,2.49889 13.86895,5.79292 16.65483,8.87128 1.89101,2.08954 1.88518,2.14419 -0.50122,4.70096 -3.0562,3.27438 -7.85489,5.73993 -15.44457,7.93536 -3.28344,0.94979 -7.23734,2.78727 -8.78644,4.08329 -1.54909,1.29602 -6.04909,3.26639 -10,4.3786 -13.86785,3.90391 -20.20617,6.28052 -22.68346,8.50535 -3.43649,3.08628 -5.68531,4.14363 -16.14156,7.58943 -6.4511,2.12593 -9.74434,3.79955 -11.43863,5.8131 -1.30862,1.55521 -3.85093,3.38541 -5.64956,4.06711 -12.65111,4.79489 -16.57969,6.78528 -19.27025,9.76314 -1.65,1.82618 -5.0297,4.09354 -7.51044,5.03857 -5.55404,2.1158 -8.32204,4.05821 -9.82759,6.8964 -0.63549,1.19798 -4.47582,4.01105 -8.53408,6.25125 -4.05826,2.24021 -9.3393,6.09622 -11.73565,8.56891 -2.39635,2.47269 -6.26867,5.28463 -8.60515,6.24875 -2.7923,1.1522 -4.64392,2.70699 -5.40298,4.53683 -1.31055,3.15929 -4.9356,6.29247 -9.47512,8.18949 -1.86976,0.78136 -3.87938,2.81972 -5.0864,5.15916 -1.09748,2.1271 -3.82725,5.10665 -6.06618,6.62122 -2.23892,1.51457 -5.25326,4.77153 -6.69853,7.23769 -1.44527,2.46616 -4.18771,5.54395 -6.09432,6.83952 -2.10583,1.43095 -4.62996,4.67416 -6.43039,8.26231 -4.46211,8.89268 -8.45218,13.089 -16.11496,16.94791 -3.77756,1.90235 -7.07185,3.45881 -7.32067,3.45881 -0.24881,0 -1.35733,-1.15046 -2.46339,-2.55658 z"
       id="path2" />
  </g>
</svg>
