<?xml version="1.0" encoding="UTF-8" standalone="no"?>
<!-- Created with Inkscape (http://www.inkscape.org/) -->

<svg
   version="1.1"
   id="svg1"
   width="37.119999"
   height="20.799999"
   viewBox="0 0 37.119999 20.799999"
   sodipodi:docname="swish.svg"
   inkscape:version="1.4.3 (0d15f75042, 2025-12-25)"
   xmlns:inkscape="http://www.inkscape.org/namespaces/inkscape"
   xmlns:sodipodi="http://sodipodi.sourceforge.net/DTD/sodipodi-0.dtd"
   xmlns="http://www.w3.org/2000/svg"
   xmlns:svg="http://www.w3.org/2000/svg">
  <defs
     id="defs1" />
  <sodipodi:namedview
     id="namedview1"
     pagecolor="#ffffff"
     bordercolor="#000000"
     borderopacity="0.25"
     inkscape:showpageshadow="2"
     inkscape:pageopacity="0.0"
     inkscape:pagecheckerboard="0"
     inkscape:deskcolor="#d1d1d1"
     inkscape:zoom="30.52263"
     inkscape:cx="18.576381"
     inkscape:cy="10.402118"
     inkscape:window-width="2560"
     inkscape:window-height="1388"
     inkscape:window-x="0"
     inkscape:window-y="0"
     inkscape:window-maximized="1"
     inkscape:current-layer="g1" />
  <g
     inkscape:groupmode="layer"
     inkscape:label="Image"
     id="g1">
    <path
       style="fill:#000000"
       d="M 29.279999,18.328415 C 28.204309,18.106732 26.714977,17.341642 26.155316,16.723223 24.488215,14.881097 24.196519,11.733889 25.461514,9.2375428 25.913347,8.3458934 26.191306,7.5246395 26.0792,7.4125341 25.868918,7.2022521 20.161381,13.091816 20.160496,13.52 c -2.73e-4,0.131999 -0.159774,0.239999 -0.354447,0.239999 -0.299068,0 -2.663307,1.675967 -3.166049,2.244356 -0.577593,0.653013 -4.263683,1.871543 -5.92,1.957005 C 6.2165386,18.193729 2.9130157,16.336318 1.1258097,12.567013 0.35196221,10.93493 0.27407027,10.484422 0.45644289,8.6955563 0.68302584,6.4730378 1.6746017,4.5452169 3.0570935,3.6393735 c 1.2224121,-0.8009551 3.709203,-0.9534648 4.722369,-0.289613 1.0932487,0.7163241 1.6333773,2.3391796 1.177561,3.5380673 -1.037403,2.7285768 -4.2035714,2.2233067 -5.062084,-0.807828 -0.3172191,-1.12 -0.3172191,-1.12 -0.3460794,0.1968452 -0.033257,1.5174664 0.7591531,2.7323032 2.3029502,3.5306317 1.6221698,0.8388563 4.6187947,0.4139503 8.4016287,-1.1913078 1.752608,-0.7437254 3.33056,-1.4606601 3.50656,-1.5931883 0.971769,-0.7317428 8.003697,-3.2488129 9.904505,-3.5453056 3.182059,-0.4963452 6.187566,0.017873 8.255495,1.4124482 1.331515,0.8979508 1.07375,1.1898766 -1.050638,1.1898766 -2.440165,0 -4.739045,1.0889843 -5.897354,2.7935886 C 28.203183,10.005015 27.931722,10.88 28.349526,10.88 c 0.104239,0 0.555659,-0.288 1.003155,-0.64 1.012654,-0.7965541 3.009145,-0.8405044 4.272774,-0.09406 1.913006,1.13004 2.424227,4.21866 1.017329,6.146355 -0.980933,1.34405 -3.704065,2.377957 -5.362785,2.03612 z m 3.563802,-1.547992 c 0.37609,-0.235257 1.002585,-0.943544 1.392209,-1.573969 0.850658,-1.376394 0.700435,-2.295041 -0.616281,-3.768702 -1.017491,-1.138771 -1.671622,-1.036891 -0.85237,0.132756 0.762815,1.08907 0.624611,2.126752 -0.422745,3.174107 -1.269219,1.269219 -2.533077,1.242046 -4.046786,-0.08701 -1.140233,-1.001138 -1.16182,-1.063547 -1.038385,-3.002053 0.144404,-2.2678266 0.963792,-3.7350043 2.733969,-4.8953834 1.157231,-0.7585831 1.229193,-1.20282 0.138785,-0.8567376 -1.15507,0.3666047 -3.080556,2.1217701 -3.812198,3.4749845 -2.137947,3.9542615 0.611289,8.6124745 4.72,7.9974095 0.616,-0.09221 1.427711,-0.360146 1.803802,-0.595404 z M 13.729103,13.468808 c 1.127008,-0.370451 2.699696,-1.104481 3.494863,-1.631178 0.795167,-0.526697 1.632059,-0.95763 1.859761,-0.95763 0.227702,0 0.887013,-0.400673 1.465138,-0.8903829 2.213709,-1.8751625 5.638673,-3.8836805 7.780625,-4.5628302 3.773476,-1.1964577 3.416816,-1.6101776 -0.798517,-0.9262654 -1.137964,0.1846278 -2.217964,0.4523872 -2.4,0.5950209 -0.182035,0.1426337 -1.194974,0.5738551 -2.250974,0.9582698 -1.056,0.3844148 -3.072,1.2159061 -4.48,1.8477585 C 11.872718,10.830746 10.738948,11.2 8.2723861,11.2 5.2119147,11.2 2.5599999,9.2224319 2.5599999,6.9401982 2.5599999,6.0014343 1.9454894,5.7304818 1.8791605,6.6399998 1.8566988,6.9479997 1.796439,7.5599997 1.7452498,7.9999997 1.6231094,9.0498652 2.1587337,10.87494 2.8273143,11.687004 c 0.8076915,0.981029 2.5665207,2.138068 3.6893833,2.427047 1.5577915,0.400911 4.9541084,0.09707 7.2124054,-0.645243 z"
       id="path1" />
  </g>
</svg>
